<svg width="599" height="354" viewBox="0 0 599 354" fill="none" xmlns="http://www.w3.org/2000/svg">
<path opacity="0.5" d="M558.672 353H11.2761C11.1123 353 11 352.797 11 352.5C11 352.203 11.1123 352 11.2761 352H558.724C558.888 352 559 352.203 559 352.5C559 352.797 558.836 353 558.672 353Z" fill="#B0B4B9"/>
<path d="M360.692 198.362H171.849C168.375 198.362 165.563 195.85 165.563 192.746V96.6036C165.563 95.4991 166.459 94.6036 167.563 94.6036H360.692C364.165 94.6036 366.977 97.1163 366.977 100.22V192.746C366.977 195.85 364.165 198.362 360.692 198.362Z" fill="#CFD5DE"/>
<path d="M173.575 225.717H144.457C140.943 225.717 138.098 222.912 138.098 219.448V116.131C138.098 112.666 140.943 109.862 144.457 109.862H173.575C177.09 109.862 179.935 112.666 179.935 116.131V219.448C179.935 222.912 177.09 225.717 173.575 225.717Z" fill="#B5BAC2"/>
<path d="M360.764 354H454.091V180.01C454.091 176.568 451.265 173.782 447.773 173.782H367.082C363.59 173.782 360.764 176.568 360.764 180.01V354Z" fill="#B5BAC2"/>
<path d="M434.782 354H473.4V180.01C473.4 176.568 470.774 173.782 467.53 173.782H440.652C437.408 173.782 434.782 176.568 434.782 180.01V354Z" fill="#CFD5DE"/>
<path d="M434.781 273.545V231.709H225.6V273.545H434.781Z" fill="#B2B6BB"/>
<path opacity="0.2" d="M235.255 273.545V231.709H228.818V273.545H235.255Z" fill="black"/>
<path d="M458.083 328.255L459.972 330.974C462.438 334.567 466.217 337.285 470.572 338.596L494.45 346.413C496.601 347.044 496.339 349.957 494.083 349.957H491.091C490.724 350.443 490.094 350.734 489.412 350.734C488.782 350.734 488.048 350.443 487.575 350.054C487.523 350.006 487.47 350.006 487.418 349.957H486.998C486.946 350.006 486.841 350.006 486.788 350.103C486.421 350.491 485.843 350.782 485.214 350.782C484.636 350.782 483.954 350.54 483.482 350.2C483.272 350.006 482.905 350.054 482.747 350.248C482.432 350.588 482.013 350.782 481.488 350.782C481.015 350.782 480.438 350.588 480.018 350.297C479.808 350.151 479.494 350.2 479.336 350.345C479.021 350.588 478.654 350.782 478.182 350.782C477.552 350.782 477.027 350.443 476.765 350.006H476.555L447.01 349.569C444.176 349.52 442.077 348.695 440.87 346.656L434.782 336.557L458.083 328.255Z" fill="#FFD6B8"/>
<path opacity="0.15" d="M434.782 336.575L458.756 328.255L444.599 336.721C443.732 337.256 443.46 338.278 443.949 339.057L447.311 344.603C448.45 346.403 450.295 347.279 452.79 347.474C453.332 347.523 453.874 347.474 454.363 347.377C457.725 346.695 461.197 346.403 464.668 346.549C469.929 343.29 473.238 339.105 473.238 339.105L477.74 340.127L483.055 349.031L477.848 349.079L481.319 350.199C481.157 350.15 480.94 350.199 480.777 350.344C480.452 350.588 480.072 350.782 479.584 350.782C478.933 350.782 478.39 350.442 478.119 350.004H477.902L447.366 349.566C444.437 349.517 442.267 348.69 441.02 346.647L434.782 336.575Z" fill="black"/>
<path d="M322.146 193.091L311.26 116.504C310.117 108.611 304.402 102.22 296.836 100.386L267.717 93.3273L238.38 93.6052L211.274 100.219C201.64 102.553 195.381 112.057 196.85 122.061L200.007 143.292L205.341 155.075C205.613 155.742 205.777 156.409 205.94 157.076L210.893 184.699C211.764 189.589 215.955 193.091 220.799 193.091H322.146Z" fill="#2DC9A7"/>
<path d="M304.747 115.855C304.143 115.855 303.538 115.649 303.452 115.319L302.847 113.342C302.76 113.013 303.192 112.683 303.97 112.642C304.661 112.601 305.352 112.807 305.438 113.177L306.043 115.155C306.13 115.484 305.698 115.814 304.92 115.855C304.92 115.855 304.834 115.855 304.747 115.855Z" fill="white"/>
<path d="M248.884 151.254C248.724 151.254 248.511 151.206 248.404 151.111C248.084 150.871 248.031 150.392 248.298 150.105L249.949 148.285C250.216 147.998 250.748 147.95 251.068 148.189C251.388 148.429 251.441 148.908 251.175 149.195L249.523 151.015C249.31 151.159 249.097 151.254 248.884 151.254Z" fill="white"/>
<path d="M287.583 102.982C287.417 102.982 287.197 102.933 287.032 102.785C286.701 102.538 286.646 102.045 286.922 101.748L288.52 100.021C288.795 99.7247 289.346 99.6754 289.677 99.9222C290.007 100.169 290.062 100.663 289.787 100.959L288.189 102.686C288.024 102.884 287.803 102.982 287.583 102.982Z" fill="white"/>
<path d="M247.232 128.727C246.935 128.727 246.637 128.587 246.459 128.401L245.031 126.583C244.792 126.257 244.911 125.837 245.328 125.604C245.745 125.418 246.28 125.511 246.578 125.837L248.006 127.655C248.244 127.981 248.125 128.401 247.708 128.634C247.53 128.681 247.351 128.727 247.232 128.727Z" fill="white"/>
<path d="M218.491 131.945C218.447 131.945 218.404 131.945 218.36 131.945L216.444 131.07C216.095 130.911 215.877 130.274 215.965 129.637C216.052 129.001 216.4 128.603 216.749 128.762L218.665 129.637C219.014 129.796 219.231 130.433 219.144 131.07C219.057 131.627 218.752 131.945 218.491 131.945Z" fill="white"/>
<path d="M290.802 160.909C290.636 160.909 290.416 160.86 290.25 160.711C289.92 160.465 289.865 159.971 290.14 159.675L291.738 157.947C292.014 157.651 292.565 157.602 292.895 157.849C293.226 158.095 293.281 158.589 293.006 158.885L291.408 160.613C291.297 160.86 291.022 160.909 290.802 160.909Z" fill="white"/>
<path d="M286.114 128.727C286.073 128.727 285.992 128.727 285.951 128.656L283.955 127.596C283.63 127.454 283.467 126.818 283.548 126.252C283.63 125.687 283.996 125.404 284.322 125.545L286.318 126.606C286.643 126.747 286.806 127.384 286.725 127.949C286.643 128.444 286.399 128.727 286.114 128.727Z" fill="white"/>
<path d="M307.934 147.881C307.88 147.837 307.826 147.793 307.772 147.749L306.205 145.862C305.935 145.555 306.043 145.16 306.421 144.94C306.799 144.721 307.286 144.809 307.556 145.116L309.123 147.003C309.393 147.31 309.285 147.705 308.907 147.925C308.582 148.1 308.204 148.056 307.934 147.881Z" fill="white"/>
<path d="M433.173 279.982C432.368 279.982 431.563 279.873 431.563 279.709V206.237C431.563 206.073 432.368 205.964 433.173 205.964C433.977 205.964 434.782 206.073 434.782 206.237V279.709C434.782 279.873 433.977 279.982 433.173 279.982Z" fill="#868A91"/>
<path opacity="0.2" d="M230.454 165.85L225.603 122.799C225.541 122.245 226.401 122.079 226.585 122.633L241.691 167.346L230.454 165.85Z" fill="black"/>
<path d="M312.08 186.133C311.508 186.701 310.479 186.842 309.736 186.369L299.618 180.218L312.48 185.092C312.537 185.47 312.366 185.849 312.08 186.133Z" fill="#868A91"/>
<path d="M457.309 325.484L433.153 334.69L375.134 233.363H273.873V193.09H390.238C397.436 193.09 403.925 197.397 406.652 203.966L457.309 325.484Z" fill="#3F4249"/>
<path opacity="0.2" d="M444.437 330.221L432.794 334.69L374.905 233.363H273.873V193.09H369.954C377.136 193.09 383.61 197.397 386.331 203.966L444.437 330.221Z" fill="black"/>
<path d="M396.164 325.484L371.953 334.69L313.988 233.363H212.728V193.09H329.093C336.291 193.09 342.78 197.397 345.506 203.966L396.164 325.484Z" fill="#3F4249"/>
<path opacity="0.2" d="M329.309 224.802C325.156 216.941 320.561 214.626 311.481 214.626H240.888L243.269 193.09H228.818V233.363H234.687H313.363L372.273 334.69L383.291 330.545L329.309 224.802Z" fill="black"/>
<path d="M396.937 328.255L398.826 330.974C401.293 334.567 405.071 337.285 409.427 338.596L433.304 346.413C435.456 347.044 435.194 349.957 432.937 349.957H429.946C429.578 350.443 428.949 350.734 428.266 350.734C427.637 350.734 426.902 350.443 426.43 350.054C426.377 350.006 426.325 350.006 426.272 349.957H425.852C425.8 350.006 425.695 350.006 425.643 350.103C425.275 350.491 424.698 350.782 424.068 350.782C423.491 350.782 422.809 350.54 422.336 350.2C422.127 350.006 421.759 350.054 421.602 350.248C421.287 350.588 420.867 350.782 420.342 350.782C419.87 350.782 419.293 350.588 418.873 350.297C418.663 350.151 418.348 350.2 418.191 350.345C417.876 350.588 417.508 350.782 417.036 350.782C416.406 350.782 415.882 350.443 415.619 350.006H415.409L385.864 349.569C383.03 349.52 380.931 348.695 379.724 346.656L373.637 336.557L396.937 328.255Z" fill="#FFD6B8"/>
<path opacity="0.15" d="M381.197 333.838L396.894 328.255L384.136 338.742L386.656 342.917C387.864 344.956 389.964 345.782 392.799 345.83L422.355 346.267H422.566C422.828 346.753 423.405 347.044 423.983 347.044C424.403 347.044 424.823 346.898 425.138 346.607C425.348 346.461 425.61 346.413 425.82 346.559C426.24 346.85 426.818 347.044 427.29 347.044C427.815 347.044 428.235 346.85 428.55 346.51C428.76 346.316 429.075 346.316 429.285 346.461C429.758 346.85 430.44 347.044 431.018 347.044C431.648 347.044 432.225 346.801 432.593 346.364C432.645 346.316 432.698 346.267 432.803 346.219H432.855L433.328 346.364C433.485 346.413 433.59 346.461 433.695 346.51C433.748 346.559 433.853 346.607 433.905 346.656C435.375 347.627 434.955 349.957 432.96 349.957H429.968C429.6 350.443 428.97 350.734 428.288 350.734C427.658 350.734 426.923 350.443 426.45 350.054C426.398 350.006 426.345 350.006 426.293 349.957H425.873C425.82 350.006 425.715 350.006 425.663 350.103C425.295 350.491 424.718 350.782 424.088 350.782C423.51 350.782 422.828 350.54 422.355 350.2C422.146 350.006 421.778 350.054 421.621 350.248C421.306 350.588 420.886 350.782 420.361 350.782C419.888 350.782 419.311 350.588 418.891 350.297C418.681 350.151 418.366 350.2 418.208 350.345C417.893 350.588 417.526 350.782 417.053 350.782C416.423 350.782 415.898 350.443 415.636 350.006H415.426L385.869 349.569C383.034 349.52 380.934 348.695 379.727 346.656L373.637 336.557L381.197 333.838Z" fill="black"/>
<path opacity="0.15" d="M412.255 337.91C412.255 337.91 406.658 347.366 396.164 350.783H406.785L412.255 337.91Z" fill="black"/>
<path d="M116.182 354H203.191C206.682 354 209.509 351.214 209.509 347.773V180.01C209.509 176.568 206.682 173.782 203.191 173.782H122.5C119.008 173.782 116.182 176.568 116.182 180.01V354Z" fill="#B5BAC2"/>
<path d="M179.683 173.782H165.261C163.025 173.782 161.236 171.913 161.236 169.578V144.818H183.764V169.578C183.708 171.913 181.919 173.782 179.683 173.782Z" fill="#21252B"/>
<path d="M187.087 164.127H183.764V162.425H187.087C187.931 162.425 188.616 161.711 188.616 160.832V151.331C188.616 150.453 187.931 149.739 187.087 149.739H183.764V148.036H187.087C188.827 148.036 190.199 149.519 190.199 151.276V160.777C190.251 162.644 188.827 164.127 187.087 164.127Z" fill="#21252B"/>
<path opacity="0.6" d="M183.764 150.053V148.25H182.202V144.818H177.295V169.071C177.295 171.165 175.678 172.851 173.671 172.851H161.236C161.905 173.433 162.798 173.782 163.746 173.782H178.132C180.362 173.782 182.147 171.921 182.147 169.595V165.349H183.708V163.546H182.147V150.111H183.764V150.053Z" fill="black"/>
<path d="M168.51 144.818C168.317 144.818 168.188 144.701 168.188 144.526C168.188 142.31 166.193 140.443 163.683 140.443H161.494C159.563 140.443 158.019 139.043 158.019 137.293C158.019 135.543 159.563 134.143 161.494 134.143H173.852C175.397 134.143 176.684 132.976 176.684 131.576C176.684 130.176 175.397 129.009 173.852 129.009H170.891C168.896 129.009 167.351 127.551 167.351 125.801C167.351 125.626 167.48 125.509 167.673 125.509C167.866 125.509 167.995 125.626 167.995 125.801C167.995 127.259 169.282 128.426 170.891 128.426H173.852C175.783 128.426 177.328 129.826 177.328 131.576C177.328 133.326 175.783 134.726 173.852 134.726H161.494C159.949 134.726 158.662 135.893 158.662 137.293C158.662 138.693 159.949 139.86 161.494 139.86H163.683C166.515 139.86 168.832 141.96 168.832 144.526C168.832 144.701 168.703 144.818 168.51 144.818Z" fill="white"/>
<path d="M173.977 144.819C173.78 144.819 173.649 144.706 173.649 144.537V143.863C173.649 143.357 173.189 142.963 172.598 142.963C171.613 142.963 170.891 142.289 170.891 141.502V140.322C170.891 139.478 171.679 138.86 172.598 138.86H174.7C177.524 138.86 179.888 136.893 179.888 134.419V132.227C179.888 132.058 180.02 131.946 180.217 131.946C180.414 131.946 180.545 132.058 180.545 132.227V134.363C180.545 137.117 177.918 139.366 174.7 139.366H172.598C172.007 139.366 171.547 139.759 171.547 140.265V141.446C171.547 141.952 172.007 142.345 172.598 142.345C173.583 142.345 174.306 143.02 174.306 143.807V144.481C174.306 144.65 174.174 144.819 173.977 144.819Z" fill="white"/>
<path opacity="0.6" d="M307.664 135.164C308.552 135.164 309.273 134.444 309.273 133.555C309.273 132.667 308.552 131.946 307.664 131.946C306.775 131.946 306.055 132.667 306.055 133.555C306.055 134.444 306.775 135.164 307.664 135.164Z" fill="black"/>
<path opacity="0.6" d="M288.354 115.855C289.243 115.855 289.963 115.135 289.963 114.246C289.963 113.357 289.243 112.637 288.354 112.637C287.466 112.637 286.745 113.357 286.745 114.246C286.745 115.135 287.466 115.855 288.354 115.855Z" fill="black"/>
<path opacity="0.6" d="M291.573 170.564C292.462 170.564 293.182 169.843 293.182 168.954C293.182 168.065 292.462 167.345 291.573 167.345C290.684 167.345 289.964 168.065 289.964 168.954C289.964 169.843 290.684 170.564 291.573 170.564Z" fill="black"/>
<path opacity="0.6" d="M288.354 144.819C289.243 144.819 289.963 144.099 289.963 143.21C289.963 142.321 289.243 141.6 288.354 141.6C287.466 141.6 286.745 142.321 286.745 143.21C286.745 144.099 287.466 144.819 288.354 144.819Z" fill="black"/>
<path opacity="0.6" d="M204.681 125.509C205.57 125.509 206.29 124.789 206.29 123.9C206.29 123.012 205.57 122.291 204.681 122.291C203.792 122.291 203.072 123.012 203.072 123.9C203.072 124.789 203.792 125.509 204.681 125.509Z" fill="black"/>
<path d="M497.627 354H439.575C438.731 354 438 353.311 438 352.391C438 351.529 438.675 350.782 439.575 350.782H499.145V352.391C499.145 353.253 498.47 354 497.627 354Z" fill="#EBB360"/>
<path d="M499.145 351.061C499.033 347.963 496.895 345.286 493.745 344.236L474.507 337.988C473.663 337.725 472.82 338.145 472.595 338.933C471.751 341.558 469.67 347.176 465.563 351.061H439.575C438.731 351.061 438 351.691 438 352.531C438 353.371 438.675 354.001 439.575 354.001H497.627C498.47 354.001 499.145 353.371 499.145 352.583V351.061Z" fill="#EBB360"/>
<path d="M499.145 351.061C499.033 347.963 496.895 345.286 493.745 344.236L474.507 337.988C473.663 337.725 472.82 338.145 472.595 338.933C471.751 341.558 469.67 347.176 465.563 351.061H439.575C438.731 351.061 438 351.691 438 352.531C438 353.371 438.675 354.001 439.575 354.001H497.627C498.47 354.001 499.145 353.371 499.145 352.583V351.061Z" fill="#21252B"/>
<path opacity="0.4" d="M499.145 350.82C499.033 348.15 497.684 345.765 495.549 344.345C498.302 346.333 497.797 348.321 493.863 348.15C473.575 347.185 470.933 347.185 468.573 346.958C468.629 346.901 468.629 346.844 468.629 346.787C467.73 348.207 466.718 349.627 465.538 350.82H439.574C438.731 350.82 438 351.501 438 352.41C438 353.318 438.674 354 439.574 354H497.572C498.415 354 499.089 353.318 499.089 352.467V350.82H499.145Z" fill="black"/>
<path d="M436.481 354H378.43C377.586 354 376.854 353.311 376.854 352.391C376.854 351.529 377.53 350.782 378.43 350.782H438V352.391C438 353.253 437.325 354 436.481 354Z" fill="#EBB360"/>
<path d="M438 351.061C437.887 347.963 435.75 345.286 432.6 344.236L413.362 337.988C412.518 337.725 411.674 338.145 411.449 338.933C410.605 341.558 408.524 347.176 404.418 351.061H378.43C377.586 351.061 376.854 351.691 376.854 352.531C376.854 353.371 377.53 354.001 378.43 354.001H436.481C437.325 354.001 438 353.371 438 352.583V351.061Z" fill="#EBB360"/>
<path d="M438 351.061C437.887 347.963 435.75 345.286 432.6 344.236L413.362 337.988C412.518 337.725 411.674 338.145 411.449 338.933C410.605 341.558 408.524 347.176 404.418 351.061H378.43C377.586 351.061 376.854 351.691 376.854 352.531C376.854 353.371 377.53 354.001 378.43 354.001H436.481C437.325 354.001 438 353.371 438 352.583V351.061Z" fill="#21252B"/>
<path opacity="0.4" d="M438 350.82C437.887 348.15 436.537 345.765 434.4 344.345C437.156 346.333 436.65 348.321 432.712 348.15C412.405 347.185 409.762 347.185 407.399 346.958C407.455 346.901 407.455 346.844 407.455 346.787C406.555 348.207 405.543 349.627 404.361 350.82H378.43C377.586 350.82 376.854 351.501 376.854 352.41C376.854 353.318 377.53 354 378.43 354H436.481C437.325 354 438 353.318 438 352.467V350.82Z" fill="black"/>
<path opacity="0.2" d="M293.182 122.533L299.2 175.577L304.458 180.219L309.273 177.388L298.756 126.439C297.679 122.25 293.182 121.911 293.182 122.533Z" fill="black"/>
<path opacity="0.6" d="M238.181 93.5293C238.181 93.5293 237.634 95.6001 239.384 96.6102C241.352 97.6709 248.951 102.368 259.666 99.3881C259.666 99.3881 263.056 98.5295 266.281 96.3577C266.992 95.8526 267.539 95.1455 267.648 94.2869C267.648 94.1859 267.648 94.1354 267.648 94.0344V93.3273C267.648 93.3273 267.648 93.3273 270.655 93.9839C270.655 94.8425 270.382 96.4587 268.851 97.8729C267.976 98.681 255.019 107.924 238.509 99.3881C238.509 99.3881 234.901 98.075 235.283 94.1859C238.181 93.5293 238.181 93.5293 238.181 93.5293Z" fill="black"/>
<path d="M280.583 174.213L288.232 175.235L304.554 173.782C306.278 173.944 307.032 174.266 308.325 175.396L318.399 184.379C319.045 184.971 319.099 185.939 318.56 186.585C318.022 187.23 317.052 187.392 316.352 186.854L306.817 179.861L313.012 187.177C313.712 187.984 313.389 189.275 312.365 189.651C311.773 189.866 311.18 189.705 310.749 189.328L302.454 181.206L308.756 187.392C309.51 188.145 309.241 189.382 308.271 189.759C307.787 189.974 307.248 189.866 306.871 189.597L298.036 183.142L304.016 187.553C304.716 188.037 304.716 189.113 304.016 189.597C303.639 189.866 303.154 189.92 302.777 189.759L294.75 186.424C293.996 186.101 293.08 186.101 292.326 186.477L289.256 187.984C286.778 189.221 283.977 189.866 281.229 189.866H276.22C269.055 189.866 280.583 174.213 280.583 174.213Z" fill="#FFD6B8"/>
<path opacity="0.15" d="M232.037 167.346L229.705 167.164C229.005 167.118 228.632 166.388 228.912 165.794L231.384 160.91L232.037 167.346Z" fill="black"/>
<path opacity="0.15" d="M302.545 186.655C302.487 186.655 302.43 186.655 302.373 186.617L296.52 183.781C296.406 183.705 296.348 183.592 296.463 183.516C296.578 183.44 296.75 183.402 296.865 183.478L302.717 186.315C302.832 186.39 302.889 186.504 302.774 186.579C302.717 186.617 302.602 186.655 302.545 186.655Z" fill="black"/>
<path opacity="0.15" d="M308.977 186.654C308.924 186.654 308.816 186.654 308.816 186.599L302.916 180.683C302.809 180.574 302.809 180.409 302.916 180.3C303.024 180.19 303.185 180.19 303.292 180.3L309.192 186.216C309.299 186.325 309.299 186.49 309.192 186.599C309.138 186.654 309.031 186.654 308.977 186.654Z" fill="black"/>
<path opacity="0.15" d="M294.452 183.81C296.383 185.072 299.621 187.224 300.757 188.041C302.348 189.228 302.803 187.67 302.803 187.67C302.916 188.338 302.746 189.08 302.291 189.525C301.894 189.896 301.382 189.971 300.985 189.748L292.52 185.146C291.725 184.701 290.759 184.701 289.964 185.22L291.611 183.958C292.52 183.29 293.543 183.29 294.452 183.81Z" fill="black"/>
<path d="M277.091 174.734L231.367 167.898L228.386 138.381L199.854 139.846L205.657 177.556C206.774 184.664 212.736 189.872 219.762 189.872H271.768L277.091 174.734Z" fill="#EBB360"/>
<path d="M283.527 174.68L231.445 167.898L228.457 138.381L199.854 139.846L205.671 177.556C206.792 184.664 212.768 189.872 219.812 189.872H278.351L283.527 174.68Z" fill="#2DC9A7"/>
<path opacity="0.6" d="M279.192 173.782L283.528 174.446L279.237 189.873H273.873L279.192 173.782Z" fill="black"/>
<g opacity="0.2">
<path opacity="0.2" d="M279.933 173.343C279.878 173.563 279.714 173.672 279.549 173.672H279.495L231.181 166.661L231.071 165.784L279.604 172.85C279.823 172.905 279.988 173.124 279.933 173.343Z" fill="black"/>
</g>
<path d="M227.437 154.472C226.706 154.472 226.158 153.984 226.066 153.333L225.61 149.347C225.518 148.696 226.066 148.045 226.889 148.045C227.62 147.964 228.351 148.452 228.351 149.184L228.808 153.171C228.899 153.822 228.351 154.472 227.529 154.472C227.529 154.472 227.529 154.472 227.437 154.472Z" fill="white"/>
<path d="M207.129 164.127C206.963 164.127 206.743 164.028 206.578 163.732C206.247 163.239 206.192 162.251 206.467 161.659L208.065 158.204C208.341 157.612 208.892 157.513 209.223 158.007C209.553 158.5 209.608 159.487 209.333 160.08L207.735 163.535C207.57 163.93 207.349 164.127 207.129 164.127Z" fill="white"/>
<path d="M231.405 180.218C231.364 180.218 231.283 180.218 231.242 180.147L229.246 179.087C228.921 178.945 228.758 178.309 228.839 177.743C228.921 177.177 229.287 176.895 229.613 177.036L231.609 178.097C231.934 178.238 232.097 178.875 232.016 179.44C231.934 179.935 231.69 180.218 231.405 180.218Z" fill="white"/>
<path d="M255.32 180.218C255.16 180.218 254.947 180.17 254.841 180.075C254.521 179.835 254.468 179.356 254.734 179.069L256.386 177.249C256.652 176.962 257.185 176.914 257.505 177.153C257.824 177.393 257.877 177.872 257.611 178.159L255.959 179.979C255.746 180.122 255.533 180.218 255.32 180.218Z" fill="white"/>
<path opacity="0.6" d="M243.3 177C244.19 177 244.91 176.28 244.91 175.391C244.91 174.503 244.19 173.782 243.3 173.782C242.412 173.782 241.691 174.503 241.691 175.391C241.691 176.28 242.412 177 243.3 177Z" fill="black"/>
<path opacity="0.6" d="M220.773 167.346C221.662 167.346 222.382 166.626 222.382 165.737C222.382 164.848 221.662 164.128 220.773 164.128C219.885 164.128 219.164 164.848 219.164 165.737C219.164 166.626 219.885 167.346 220.773 167.346Z" fill="black"/>
<path opacity="0.15" d="M280.309 187.192L279.439 189.873H219.794C212.618 189.873 206.474 184.621 205.386 177.454L196.85 122.469C195.382 112.621 201.635 103.266 211.258 100.968L216.315 99.7642C208.594 103.211 203.918 111.472 205.223 120.117L213.107 170.779C214.249 177.946 220.338 183.199 227.515 183.199L280.309 187.192Z" fill="black"/>
<path opacity="0.15" d="M286.662 187.047C285.381 187.047 284.378 185.836 284.489 184.509L285.715 173.782L280.31 189.873H281.09C283.987 189.873 286.83 189.181 289.393 187.855L293.182 186.009C292.291 186.124 289.95 187.047 286.662 187.047Z" fill="black"/>
<path d="M271.462 189.872H324.556C324.986 189.872 325.363 190.282 325.363 190.75V192.213C325.363 192.681 324.986 193.091 324.556 193.091H271.462C271.031 193.091 270.654 192.681 270.654 192.213V190.75C270.654 190.282 270.977 189.872 271.462 189.872Z" fill="#21252B"/>
<path opacity="0.6" d="M271.462 189.872H324.556C324.986 189.872 325.363 190.282 325.363 190.75V192.213C325.363 192.681 324.986 193.091 324.556 193.091H271.462C271.031 193.091 270.654 192.681 270.654 192.213V190.75C270.654 190.282 270.977 189.872 271.462 189.872Z" fill="black"/>
<path d="M310.073 189.872H401.799C402.226 189.872 402.6 190.282 402.6 190.75V192.213C402.6 192.681 402.226 193.091 401.799 193.091H310.073C309.646 193.091 309.272 192.681 309.272 192.213V190.75C309.326 190.282 309.646 189.872 310.073 189.872Z" fill="#21252B"/>
<g opacity="0.6">
<path opacity="0.6" d="M401.489 189.787H305.628C305.464 189.787 305.354 189.677 305.354 189.513C305.354 189.349 305.464 189.239 305.628 189.239H401.489C401.653 189.239 401.763 189.349 401.763 189.513C401.763 189.677 401.599 189.787 401.489 189.787Z" fill="black"/>
</g>
<path d="M308.444 189.873H323.347C324.498 189.873 325.476 189.1 325.706 187.996L338.192 124.997C338.48 123.561 337.329 122.291 335.833 122.291H320.93C319.78 122.291 318.801 123.064 318.571 124.169L306.085 187.168C305.855 188.603 306.948 189.873 308.444 189.873Z" fill="#21252B"/>
<path opacity="0.6" d="M308.444 189.873H323.347C324.498 189.873 325.476 189.1 325.706 187.996L338.192 124.997C338.48 123.561 337.329 122.291 335.833 122.291H320.93C319.78 122.291 318.801 123.064 318.571 124.169L306.085 187.168C305.855 188.603 306.948 189.873 308.444 189.873Z" fill="black"/>
<path d="M311.48 189.873H401.47C402.552 189.873 403.472 189.1 403.688 187.996L415.431 124.997C415.701 123.561 414.619 122.291 413.212 122.291H323.277C322.195 122.291 321.275 123.064 321.058 124.169L309.316 187.168C309.045 188.603 310.073 189.873 311.48 189.873Z" fill="#21252B"/>
<path d="M363.272 152.589C362.606 153.85 363.339 154.947 364.87 154.947C364.936 154.947 365.07 154.947 365.136 154.947C363.339 156.592 360.609 157.744 358.213 157.689C354.951 157.634 353.42 155.44 354.884 152.753C356.282 150.066 360.143 147.982 363.405 148.037C365.469 148.092 366.867 148.969 367.2 150.34C365.669 150.395 363.938 151.327 363.272 152.589Z" fill="#3F4249"/>
<path d="M270.654 62.5137C270.654 62.5137 245.481 43.8917 243.008 64.1764L242.293 69.497L238.556 95.4907V95.5456L238.501 96.0998C238.391 96.8758 238.611 97.5968 239.05 98.151V98.2059L239.105 98.2619C239.27 98.4836 239.49 98.7047 239.765 98.871C241.799 100.146 243.118 100.811 244.767 101.42C252.242 104.302 260.871 103.194 267.467 98.095C267.961 97.4854 268.236 96.7095 268.181 95.8781L267.741 82.355C268.181 80.9695 268.456 79.4176 268.621 77.6995C269.445 69.7186 270.654 62.5137 270.654 62.5137Z" fill="#FFD6B8"/>
<path d="M272.263 64.3632C276.706 64.3632 280.309 60.0411 280.309 54.7086C280.309 49.3767 276.706 45.0541 272.263 45.0541C267.82 45.0541 264.218 49.3767 264.218 54.7086C264.218 60.0411 267.82 64.3632 272.263 64.3632Z" fill="#21252B"/>
<path d="M272.9 47.8752C272.9 47.8752 279.338 88.8938 259.096 90.0786C241.582 91.1507 241.691 63.109 241.691 63.109L243.819 45.0541L272.9 47.8752Z" fill="#FFD6B8"/>
<path d="M273.612 50.4691H255.554C253.283 50.4691 251.455 52.2533 251.455 54.4699C251.455 56.6866 249.627 58.4708 247.355 58.4708C246.746 58.4708 246.247 58.9573 246.247 59.5521V63.4448C246.247 63.9314 245.86 64.3639 245.306 64.3639C244.863 64.3639 244.475 64.0395 244.419 63.607L243.865 59.8765L243.145 58.5789L238.714 60.8496C238.714 60.8496 232.62 50.0366 236.609 40.8996C238.88 35.6552 244.475 34.1955 247.023 34.0333C247.854 33.9792 248.629 33.5467 249.128 32.8979C250.291 31.2219 253.061 28.4105 258.711 29.0593C263.032 29.5459 265.303 31.9788 266.356 33.9792C267.02 35.1146 268.461 35.6552 269.735 35.2227C271.618 34.5739 274.333 34.2496 277.268 36.304C283.03 40.1967 279.927 49.9825 273.612 50.4691Z" fill="#21252B"/>
<path opacity="0.15" d="M242.256 71.0967C242.256 71.0967 243.95 71.3084 244.91 70.8003L241.691 74.0185L242.256 71.0967Z" fill="black"/>
<path d="M243.69 60.5525C243.69 60.5525 242.595 56.8457 238.443 58.2425C233.715 59.8004 233.83 69.6317 241.615 70.7061C245.709 71.2971 245.017 69.0407 244.555 66.0323C243.69 60.5525 243.69 60.5525 243.69 60.5525Z" fill="#FFD6B8"/>
<path opacity="0.3" d="M238.627 58.4768C239.169 57.9757 239.711 57.7878 240.176 58.0383C240.64 58.2889 241.027 58.8526 241.298 59.7294C241.569 60.6689 241.724 61.7336 241.685 62.861V63.8631C241.685 64.1763 241.53 64.3642 241.337 64.3642C241.143 64.3642 241.027 64.1137 241.027 63.8005V62.7984C241.066 62.5479 240.988 61.0447 240.717 60.1678C240.524 59.5415 240.253 59.1031 239.982 58.9778C239.711 58.8526 239.363 58.9778 238.937 59.3536C238.782 59.4789 238.589 59.4163 238.511 59.1657C238.434 58.9778 238.473 58.6647 238.627 58.4768Z" fill="black"/>
<path d="M273.229 51.4044L271.102 51.4914C270.878 51.4914 270.654 51.2305 270.654 50.8825C270.654 50.5346 270.822 50.1867 271.046 50.1867L273.173 50.0997C273.453 50.0997 273.733 50.0128 273.956 49.9258C274.46 49.7518 275.468 49.2299 276.475 48.3602C276.699 48.1862 276.923 48.2732 277.035 48.6211C277.147 48.969 277.091 49.3169 276.867 49.4909C275.803 50.4477 274.684 50.9695 274.124 51.1435C273.9 51.3174 273.565 51.4044 273.229 51.4044Z" fill="#FC9D9D"/>
<path opacity="0.15" d="M267.436 93.1941L267.222 86.6987C265.457 88.3786 260.537 90.5624 255.349 88.8265C255.296 88.7705 255.349 88.8265 255.349 88.8265C252.14 87.7066 250.054 85.6348 248.824 83.843C248.717 83.675 248.45 83.619 248.29 83.731C248.129 83.843 248.076 84.123 248.183 84.2909C249.734 86.4747 252.461 89.1065 256.847 90.0584C262.034 94.314 267.436 93.1941 267.436 93.1941Z" fill="black"/>
<g opacity="0.3">
<path opacity="0.3" d="M262.298 80.7204H262.244C260.655 80.7204 259.833 80.7204 259.833 80.7204C259.56 80.7204 259.286 80.5013 259.286 80.1727C259.286 79.8988 259.505 79.6249 259.833 79.6249C259.833 79.6249 260.655 79.6249 262.244 79.6249C262.518 79.6249 262.791 79.844 262.791 80.1727C262.737 80.4465 262.518 80.6657 262.298 80.7204Z" fill="black"/>
</g>
<g opacity="0.3">
<path opacity="0.3" d="M263.284 78.4708C258.847 78.7994 257.039 76.2797 256.437 75.0198C256.327 74.7459 256.437 74.472 256.656 74.3624C256.93 74.2529 257.203 74.3624 257.313 74.5816C257.916 75.7867 259.888 78.4708 265.311 77.1013C265.584 77.0465 265.858 77.2109 265.913 77.4848C265.968 77.7587 265.804 78.0325 265.53 78.0873C264.763 78.3064 263.996 78.416 263.284 78.4708Z" fill="black"/>
</g>
<path d="M259.391 67.5816C260.28 67.5816 261 66.8614 261 65.9725C261 65.0842 260.28 64.3634 259.391 64.3634C258.502 64.3634 257.782 65.0842 257.782 65.9725C257.782 66.8614 258.502 67.5816 259.391 67.5816Z" fill="#21252B"/>
<path d="M272.263 67.5816C273.152 67.5816 273.872 66.8614 273.872 65.9725C273.872 65.0842 273.152 64.3634 272.263 64.3634C271.375 64.3634 270.654 65.0842 270.654 65.9725C270.654 66.8614 271.375 67.5816 272.263 67.5816Z" fill="#21252B"/>
<g opacity="0.3">
<path opacity="0.3" d="M264.762 74.6403H262.571C262.297 74.6403 262.078 74.4212 262.078 74.1473C262.078 73.8734 262.297 73.6543 262.571 73.6543H264.762C265.31 73.6543 265.748 73.216 265.748 72.6683C265.748 72.1205 265.31 71.6823 264.762 71.6823C264.488 71.6823 264.269 71.4632 264.269 71.1893C264.269 70.9154 264.488 70.6963 264.762 70.6963C265.803 70.6963 266.679 71.5727 266.679 72.6135C266.679 73.7638 265.858 74.6403 264.762 74.6403Z" fill="black"/>
</g>
<path d="M274.984 62.8439L268.249 62.301L267.354 62.2407L261.461 61.758H261.409L253.831 61.1548C252.621 61.0341 251.516 62.12 251.463 63.5075L251.358 65.4982C251.148 69.2987 253.621 72.6769 256.988 72.9182C260.303 73.1595 263.25 70.3242 263.461 66.4634L263.566 64.4727C263.619 63.8694 263.461 63.3265 263.198 62.9042L265.565 63.0852C265.25 63.5075 265.039 63.9901 264.987 64.5933L264.881 66.584C264.671 70.3845 267.144 73.7627 270.512 74.004C273.827 74.2453 276.773 71.4101 276.984 67.5493L277.089 65.5585C277.142 64.2314 276.195 62.9646 274.984 62.8439ZM262.619 64.4727L262.514 66.4634C262.303 69.721 259.83 72.1943 256.988 71.953C254.147 71.7117 251.99 68.8764 252.2 65.6189L252.305 63.6281C252.358 62.7836 252.989 62.12 253.726 62.1803L261.303 62.7836H261.356C262.093 62.8439 262.671 63.6281 262.619 64.4727ZM276.037 67.4889C275.826 70.7465 273.353 73.2198 270.512 72.9785C267.67 72.7372 265.513 69.9019 265.723 66.6444L265.829 64.6537C265.881 63.8091 266.513 63.1455 267.249 63.2059L268.144 63.2662L274.879 63.8091C275.616 63.8694 276.195 64.5933 276.142 65.4379L276.037 67.4889Z" fill="#21252B"/>
<path d="M190.2 354H228.818V180.01C228.818 176.568 226.192 173.782 222.948 173.782H196.07C192.826 173.782 190.2 176.568 190.2 180.01V354Z" fill="#CFD5DE"/>
<path d="M84.0101 301.201L83.3301 301.061C83.4701 300.511 90.7201 242.471 107.29 211.121L107.84 211.391C91.4001 242.881 84.0101 300.651 84.0101 301.201Z" fill="#3F4249"/>
<path d="M81.4099 280.391H80.7299C82.5099 248.491 71.2799 201.811 71.1499 201.271L71.8299 201.131C71.8299 201.541 83.1899 248.361 81.4099 280.391Z" fill="#3F4249"/>
<path d="M106.05 214.129C106.05 214.129 106.19 182.779 133.57 180.859C133.7 180.869 135.9 208.519 106.05 214.129Z" fill="#4D61FC"/>
<path d="M40.34 207.42C40.34 207.42 32.95 177.58 0.5 186.06C0.51 185.93 6.67 207.83 40.34 207.42Z" fill="#4D61FC"/>
<path d="M75.5198 219.611C75.5198 219.611 85.2398 194.151 62.6498 180.871C62.7898 180.871 52.9398 205.921 75.5198 219.611Z" fill="#4D61FC"/>
<path d="M70.6001 301.2H69.9201C69.9201 242.34 40.4901 207.98 40.0801 207.56L40.6301 207.15C40.8901 207.56 70.6001 242.06 70.6001 301.2Z" fill="#3F4249"/>
<path d="M80.0399 301.201H79.3599C82.7799 240.831 85.5199 230.291 90.8599 209.481C91.4099 207.291 91.9599 205.101 92.6399 202.641L93.3199 202.781C92.7699 205.241 92.0899 207.431 91.5399 209.621C86.1999 230.421 83.4599 240.831 80.0399 301.201Z" fill="#3F4249"/>
<path d="M63.6199 300.099H62.94C66.64 254.789 56.0999 222.749 46.6499 203.859C35.5599 181.819 21.8699 169.499 15.4399 166.489L15.7099 165.939C22.2799 168.949 36.11 181.409 47.2 203.589C56.77 222.479 67.45 254.649 63.6199 300.099Z" fill="#3F4249"/>
<path d="M58.5502 300.1H57.8702C58.0102 299.55 66.0802 241.65 30.4902 222.48L30.7602 221.93C41.1602 227.54 54.3102 240.14 58.2802 268.47C60.7402 285.32 58.5502 299.96 58.5502 300.1Z" fill="#3F4249"/>
<path d="M85.1102 292.44L84.4302 292.17C84.4302 292.03 87.7202 282.72 97.7102 274.92L98.1202 275.47C88.3902 283.13 85.1102 292.3 85.1102 292.44Z" fill="#3F4249"/>
<path d="M88.39 274.501L87.98 273.951C88.8 273.271 108.65 255.881 118.78 252.871L118.92 253.551C108.93 256.431 88.53 274.231 88.39 274.501Z" fill="#3F4249"/>
<path d="M46.9099 236.991C46.9099 236.991 38.8299 206.331 6.93994 213.441C6.93994 213.451 12.4199 239.591 46.9099 236.991Z" fill="#4D61FC"/>
<path opacity="0.4" d="M46.9099 236.991C46.9099 236.991 38.8299 206.331 6.93994 213.441C6.93994 213.451 12.4199 239.591 46.9099 236.991Z" fill="white"/>
<path d="M63.3403 268.481C63.3403 268.481 57.8603 246.711 28.5703 253.831C28.5703 253.831 38.1503 275.601 63.3403 268.481Z" fill="#4D61FC"/>
<path d="M83.1899 254.24C83.1899 254.24 85.9299 220.02 121.66 215.77C121.52 215.91 123.3 249.31 83.1899 254.24Z" fill="#4D61FC"/>
<path d="M73.7503 301.2H73.0703C73.3403 276.83 74.7103 151.16 74.7103 149.93H75.3903C75.2503 151.16 73.8803 276.83 73.7503 301.2Z" fill="#3F4249"/>
<path d="M80.32 245.211C80.32 245.211 49.79 246.851 49.79 213.041C49.79 213.041 79.36 213.451 80.32 245.211Z" fill="#4D61FC"/>
<path opacity="0.4" d="M80.32 245.211C80.32 245.211 49.79 246.851 49.79 213.041C49.79 213.041 79.36 213.451 80.32 245.211Z" fill="white"/>
<path d="M109.06 258.209C109.06 258.209 117.41 234.94 143.56 240.82C143.56 240.96 139.18 260.399 109.06 258.209Z" fill="#4D61FC"/>
<path opacity="0.4" d="M109.06 258.209C109.06 258.209 117.41 234.94 143.56 240.82C143.56 240.96 139.18 260.399 109.06 258.209Z" fill="white"/>
<path d="M96.88 300.51H42.9399V307.35H96.88V300.51Z" fill="#3F4249"/>
<path d="M90.0403 351.57H49.7903L46.7803 307.359H93.0503L90.0403 351.57Z" fill="#84888F"/>
<path d="M90.0403 351.57H49.7903L46.7803 307.359H93.0503L90.0403 351.57Z" fill="#3F4249"/>
<path opacity="0.2" d="M96.8803 300.51H88.2603V307.36H80.1803H46.7803L46.9103 309.27H80.1803L80.3203 351.571H90.0403L93.0503 307.36H96.8803V300.51Z" fill="black"/>
<path d="M74.5701 176.081C74.5701 176.081 59.6501 153.491 79.0901 132.001C79.0801 131.861 91.9501 153.901 74.5701 176.081Z" fill="#4D61FC"/>
<path opacity="0.4" d="M74.5701 176.081C74.5701 176.081 59.6501 153.491 79.0901 132.001C79.0801 131.861 91.9501 153.901 74.5701 176.081Z" fill="white"/>
<path d="M88.1198 221.39C88.1198 221.39 71.6898 186.48 100.99 164.85C100.99 164.99 121.25 196.61 88.1198 221.39Z" fill="#4D61FC"/>
<path opacity="0.4" d="M88.1198 221.39C88.1198 221.39 71.6898 186.48 100.99 164.85C100.99 164.99 121.11 196.61 88.1198 221.39Z" fill="white"/>
<path d="M92.0898 281.21C92.0898 281.21 96.0598 266.01 116.87 269.16C116.87 269.16 113.44 284.63 92.0898 281.21Z" fill="#4D61FC"/>
<path d="M63.6198 288.191C63.6198 288.191 59.0998 258.621 86.0698 255.201C86.0698 255.201 92.4998 280.801 63.6198 288.191Z" fill="#4D61FC"/>
<path opacity="0.4" d="M63.6198 288.191C63.6198 288.191 59.0998 258.621 86.0698 255.201C86.0698 255.201 92.4998 280.801 63.6198 288.191Z" fill="white"/>
<path d="M8.31006 161.7C8.31006 161.7 24.6001 160.06 27.7501 175.66C27.6101 175.66 12.9601 177.44 8.31006 161.7Z" fill="#4D61FC"/>
<path opacity="0.3" d="M8.31006 161.7C8.31006 161.7 24.6001 160.06 27.7501 175.66C27.6101 175.66 12.9601 177.44 8.31006 161.7Z" fill="white"/>
<path d="M47.8698 160.061C47.8698 160.061 27.6098 181.141 47.4598 204.001C47.4598 204.001 67.3098 181.551 47.8698 160.061Z" fill="#4D61FC"/>
<path opacity="0.4" d="M47.8698 160.061C47.8698 160.061 27.6098 181.141 47.4598 204.001C47.4598 204.001 67.3098 181.551 47.8698 160.061Z" fill="white"/>
</svg>
