<?xml version="1.0" encoding="UTF-8"?>
<svg version="1.1" xmlns="http://www.w3.org/2000/svg" width="512" height="73">
<path d="M0 0 C0.94488281 -0.03738281 1.88976562 -0.07476562 2.86328125 -0.11328125 C6.55291818 0.44297107 8.09537175 1.65780314 10.6875 4.3125 C11.83984375 6.80859375 11.83984375 6.80859375 12.625 9.75 C12.93824219 10.87664063 13.25148438 12.00328125 13.57421875 13.1640625 C13.7448584 13.80504883 13.91549805 14.44603516 14.09130859 15.10644531 C15.05159708 18.65974864 16.08388704 22.19218619 17.10375977 25.72875977 C18.31027928 29.91995772 19.49955476 34.11600607 20.6875 38.3125 C20.71255615 37.19689697 20.7376123 36.08129395 20.76342773 34.93188477 C20.85733421 30.8075741 20.95759514 26.6834385 21.05981445 22.55932617 C21.103227 20.7716073 21.14489729 18.98384526 21.18481445 17.19604492 C21.2423646 14.63186609 21.30610203 12.06790588 21.37109375 9.50390625 C21.38780624 8.6997377 21.40451874 7.89556915 21.42173767 7.06703186 C21.57362829 1.42637171 21.57362829 1.42637171 22.6875 0.3125 C28.42361111 0.03935185 28.42361111 0.03935185 30.6875 0.3125 C33.33369583 2.95869583 32.93645743 4.90858327 32.96539307 8.50947571 C32.9613446 9.35841904 32.95729614 10.20736237 32.953125 11.08203125 C32.95599518 12.39176155 32.95599518 12.39176155 32.95892334 13.72795105 C32.96028593 15.57815844 32.95658432 17.42837537 32.94824219 19.27856445 C32.93758209 22.103248 32.94811493 24.92728995 32.9609375 27.75195312 C32.95961516 29.54948057 32.95705124 31.34700761 32.953125 33.14453125 C32.95717346 33.98740189 32.96122192 34.83027252 32.96539307 35.69868469 C32.93156575 39.95906245 32.85469784 43.51448127 30.6875 47.3125 C27.29627363 49.57331758 25.81372394 49.66518603 21.8125 49.75 C20.26949219 49.80994141 20.26949219 49.80994141 18.6953125 49.87109375 C14.59143899 49.10894581 13.35829 47.48497221 10.6875 44.3125 C9.67031036 41.77763276 8.90077792 39.51169876 8.23046875 36.89453125 C8.03777908 36.1960759 7.84508942 35.49762054 7.64656067 34.77799988 C7.04022015 32.56427577 6.45767712 30.34505529 5.875 28.125 C5.46567814 26.62264138 5.05488483 25.12068283 4.64257812 23.61914062 C1.6875 12.75367676 1.6875 12.75367676 1.6875 10.3125 C1.0275 10.3125 0.3675 10.3125 -0.3125 10.3125 C0.0175 11.3025 0.3475 12.2925 0.6875 13.3125 C0.7843229 15.95960152 0.82748569 18.57958524 0.8203125 21.2265625 C0.82126923 21.99680756 0.82222595 22.76705261 0.82321167 23.56063843 C0.82389151 25.18625978 0.82205088 26.81188387 0.81787109 28.4375 C0.81250546 30.93495721 0.81783015 33.43223577 0.82421875 35.9296875 C0.82355822 37.5078129 0.82227758 39.08593819 0.8203125 40.6640625 C0.82233673 41.41507233 0.82436096 42.16608215 0.82644653 42.93984985 C0.80246122 48.19753878 0.80246122 48.19753878 -0.3125 49.3125 C-1.83178038 49.38429964 -3.35417482 49.39642007 -4.875 49.375 C-5.70128906 49.36597656 -6.52757812 49.35695312 -7.37890625 49.34765625 C-8.01699219 49.33605469 -8.65507812 49.32445312 -9.3125 49.3125 C-11.00921408 45.91907185 -10.49740156 42.05827488 -10.515625 38.32421875 C-10.52132507 37.42886917 -10.52702515 36.53351959 -10.53289795 35.61103821 C-10.5423539 33.71376733 -10.54888429 31.81647999 -10.55273438 29.91918945 C-10.56242639 27.0220047 -10.59343831 24.12553338 -10.625 21.22851562 C-10.63153143 19.38542088 -10.63678135 17.54232106 -10.640625 15.69921875 C-10.6529718 14.83447433 -10.6653186 13.96972992 -10.67803955 13.07878113 C-10.66056997 8.34033323 -10.42559018 5.14607255 -7.3125 1.3125 C-4.76895023 0.04072512 -2.84084848 0.07303941 0 0 Z " fill="#272728" transform="translate(431.3125,11.6875)"/>
<path d="M0 0 C1.52947266 -0.03287109 1.52947266 -0.03287109 3.08984375 -0.06640625 C7.29995402 0.82430039 8.50095096 2.08185695 11.0625 5.5625 C12.60866089 9.37740697 13.68715634 13.27704681 14.75 17.25 C15.04455078 18.28833984 15.33910156 19.32667969 15.64257812 20.39648438 C17.41119338 26.73567836 18.87808872 33.08921951 20.0625 39.5625 C20.7225 39.5625 21.3825 39.5625 22.0625 39.5625 C21.9910376 38.93303467 21.9195752 38.30356934 21.84594727 37.6550293 C21.04252041 29.87827836 20.94524648 22.18790563 21 14.375 C21.00451172 13.13685547 21.00902344 11.89871094 21.01367188 10.62304688 C21.02533301 7.60281215 21.04169764 4.58268323 21.0625 1.5625 C24.27701269 -0.04475635 27.49862536 0.50501815 31.0625 0.5625 C33.54360002 4.35236638 33.36862924 8.21136542 33.36328125 12.58203125 C33.36756638 13.35882736 33.3718515 14.13562347 33.37626648 14.93595886 C33.38200039 16.57749458 33.38251695 18.21905571 33.37817383 19.8605957 C33.37502388 22.3560799 33.39844848 24.85036625 33.42382812 27.34570312 C33.42610242 28.94531102 33.42680401 30.54492207 33.42578125 32.14453125 C33.434991 32.88331009 33.44420074 33.62208893 33.45368958 34.383255 C33.40884082 39.47603574 32.48467434 43.05382441 30.0625 47.5625 C26.78933609 49.74460927 25.52029281 49.91074318 21.6875 50 C20.28371094 50.05994141 20.28371094 50.05994141 18.8515625 50.12109375 C14.74385328 49.29840129 13.56810909 47.93622652 11.0625 44.5625 C9.51437554 40.74843687 8.43782093 36.84786822 7.375 32.875 C7.08044922 31.83666016 6.78589844 30.79832031 6.48242188 29.72851562 C4.71380662 23.38932164 3.24691128 17.03578049 2.0625 10.5625 C1.4025 10.5625 0.7425 10.5625 0.0625 10.5625 C0.09279297 11.15039307 0.12308594 11.73828613 0.15429688 12.34399414 C1.15729498 32.12427417 1.15729498 32.12427417 1.25 41.3125 C1.26417969 42.48296875 1.27835937 43.6534375 1.29296875 44.859375 C1.0625 47.5625 1.0625 47.5625 -0.9375 49.5625 C-3.65204956 49.89002234 -6.18980759 49.6933425 -8.9375 49.5625 C-10.47211968 48.02788032 -10.08706539 46.61210718 -10.11450195 44.47338867 C-10.12733719 43.60546188 -10.14017242 42.7375351 -10.15339661 41.8433075 C-10.16447701 40.42620232 -10.16447701 40.42620232 -10.17578125 38.98046875 C-10.183853 38.01474442 -10.19192474 37.04902008 -10.20024109 36.05403137 C-10.21410016 34.00535894 -10.22481412 31.95666324 -10.23266602 29.90795898 C-10.24987112 26.77348025 -10.29374003 23.64005803 -10.33789062 20.50585938 C-10.34801771 18.51823695 -10.35653376 16.53060552 -10.36328125 14.54296875 C-10.38078934 13.60430466 -10.39829742 12.66564056 -10.41633606 11.6985321 C-10.39467537 5.20244893 -10.39467537 5.20244893 -8.08837891 1.97412109 C-5.26862581 0.1235181 -3.35848227 -0.00423516 0 0 Z " fill="#272728" transform="translate(350.9375,11.4375)"/>
<path d="M0 0 C0.94488281 -0.03738281 1.88976562 -0.07476562 2.86328125 -0.11328125 C6.78653789 0.47819174 8.04675421 1.2976123 10.6875 4.3125 C12.24954183 8.09555215 13.27937955 11.9819879 14.3125 15.9375 C14.88778434 18.03391908 15.46330284 20.13027391 16.0390625 22.2265625 C16.31137695 23.24137695 16.58369141 24.25619141 16.86425781 25.30175781 C18.05694435 29.66362328 19.36136597 33.98961623 20.6875 38.3125 C20.71255615 37.19689697 20.7376123 36.08129395 20.76342773 34.93188477 C20.85733421 30.8075741 20.95759514 26.6834385 21.05981445 22.55932617 C21.103227 20.7716073 21.14489729 18.98384526 21.18481445 17.19604492 C21.2423646 14.63186609 21.30610203 12.06790588 21.37109375 9.50390625 C21.38780624 8.6997377 21.40451874 7.89556915 21.42173767 7.06703186 C21.57362829 1.42637171 21.57362829 1.42637171 22.6875 0.3125 C28.42361111 0.03935185 28.42361111 0.03935185 30.6875 0.3125 C33.33369583 2.95869583 32.93645743 4.90858327 32.96539307 8.50947571 C32.9613446 9.35841904 32.95729614 10.20736237 32.953125 11.08203125 C32.95599518 12.39176155 32.95599518 12.39176155 32.95892334 13.72795105 C32.96028593 15.57815844 32.95658432 17.42837537 32.94824219 19.27856445 C32.93758209 22.103248 32.94811493 24.92728995 32.9609375 27.75195312 C32.95961516 29.54948057 32.95705124 31.34700761 32.953125 33.14453125 C32.95717346 33.98740189 32.96122192 34.83027252 32.96539307 35.69868469 C32.93156575 39.95906245 32.85469784 43.51448127 30.6875 47.3125 C27.34701897 49.53948735 26.15464419 49.5836921 22.25 49.5625 C21.30253906 49.56765625 20.35507813 49.5728125 19.37890625 49.578125 C16.46192981 49.29023763 15.00858357 49.10628858 12.6875 47.3125 C9.08212201 40.72466273 7.55159191 33.13775887 5.5625 25.9375 C4.85550395 23.38688066 4.14374207 20.83772919 3.4296875 18.2890625 C3.1188623 17.16580566 2.80803711 16.04254883 2.48779297 14.88525391 C1.93502266 12.40496754 1.93502266 12.40496754 0.6875 11.3125 C0.69273682 12.42810303 0.69797363 13.54370605 0.70336914 14.69311523 C0.72141775 18.81729333 0.73293149 22.94146791 0.74243164 27.06567383 C0.74747218 28.85344021 0.75430454 30.64120245 0.76293945 32.42895508 C0.7750173 34.99301168 0.78073094 37.55701397 0.78515625 40.12109375 C0.79031754 40.9252623 0.79547882 41.72943085 0.80079651 42.55796814 C0.80099215 44.47651715 0.74951983 46.39495368 0.6875 48.3125 C-0.3125 49.3125 -0.3125 49.3125 -2.37890625 49.41015625 C-3.20261719 49.39855469 -4.02632812 49.38695312 -4.875 49.375 C-5.70128906 49.36597656 -6.52757812 49.35695312 -7.37890625 49.34765625 C-8.01699219 49.33605469 -8.65507812 49.32445312 -9.3125 49.3125 C-11.00921408 45.91907185 -10.49740156 42.05827488 -10.515625 38.32421875 C-10.52132507 37.42886917 -10.52702515 36.53351959 -10.53289795 35.61103821 C-10.5423539 33.71376733 -10.54888429 31.81647999 -10.55273438 29.91918945 C-10.56242639 27.0220047 -10.59343831 24.12553338 -10.625 21.22851562 C-10.63153143 19.38542088 -10.63678135 17.54232106 -10.640625 15.69921875 C-10.6529718 14.83447433 -10.6653186 13.96972992 -10.67803955 13.07878113 C-10.66056997 8.34033323 -10.42559018 5.14607255 -7.3125 1.3125 C-4.76895023 0.04072512 -2.84084848 0.07303941 0 0 Z " fill="#272728" transform="translate(141.3125,11.6875)"/>
<path d="M0 0 C1.20916077 -0.00929787 1.20916077 -0.00929787 2.44274902 -0.01878357 C4.14394932 -0.02587499 5.84521912 -0.02271945 7.54638672 -0.01000977 C10.14810887 0.00386284 12.74623754 -0.03022623 15.34765625 -0.06835938 C17.00260505 -0.06931056 18.65755834 -0.06745176 20.3125 -0.0625 C21.08863647 -0.07575821 21.86477295 -0.08901642 22.66442871 -0.10267639 C26.56468364 -0.03548926 28.28000584 0.20578967 31.14257812 2.94946289 C32.87192623 5.93928263 33.41558141 7.19159996 32.65625 10.56640625 C30.99702969 13.08886956 30.23095007 14.14467072 27.65625 15.56640625 C23.372008 16.19303503 19.16178402 16.03614558 14.84375 15.87890625 C13.67392578 15.85634766 12.50410156 15.83378906 11.29882812 15.81054688 C8.41666231 15.75172716 5.53711319 15.66957766 2.65625 15.56640625 C2.67719727 16.3027832 2.69814453 17.03916016 2.71972656 17.79785156 C2.80292144 21.13723067 2.85492157 24.47639174 2.90625 27.81640625 C2.95652344 29.55470703 2.95652344 29.55470703 3.0078125 31.328125 C3.02070312 32.44316406 3.03359375 33.55820312 3.046875 34.70703125 C3.06782227 35.73344727 3.08876953 36.75986328 3.11035156 37.81738281 C2.65625 40.56640625 2.65625 40.56640625 1.13964844 42.90161133 C-2.31357758 45.21654922 -5.4512695 45.1223363 -9.46875 45.0625 C-10.6446167 45.06468285 -10.6446167 45.06468285 -11.84423828 45.06690979 C-13.49841028 45.0652529 -15.15259802 45.05371497 -16.80664062 45.03295898 C-19.33530306 45.00400298 -21.86186805 45.01235326 -24.390625 45.02539062 C-26.00001017 45.01915278 -27.60938873 45.01076147 -29.21875 45 C-29.9730127 45.00293564 -30.72727539 45.00587128 -31.50439453 45.00889587 C-34.71981515 44.95125208 -36.99112336 44.76463491 -39.82055664 43.17407227 C-41.80915465 41.07519137 -41.8527012 39.92445427 -41.78125 37.06640625 C-41.77996094 36.29296875 -41.77867188 35.51953125 -41.77734375 34.72265625 C-41.2268717 31.98517362 -40.57313875 31.23667939 -38.34375 29.56640625 C-35.61645508 29.22583008 -35.61645508 29.22583008 -32.36328125 29.2734375 C-31.19990234 29.28310547 -30.03652344 29.29277344 -28.83789062 29.30273438 C-27.62294922 29.32787109 -26.40800781 29.35300781 -25.15625 29.37890625 C-23.92970703 29.39244141 -22.70316406 29.40597656 -21.43945312 29.41992188 C-18.40711336 29.45531884 -15.37565004 29.50469865 -12.34375 29.56640625 C-12.36469727 28.8300293 -12.38564453 28.09365234 -12.40722656 27.33496094 C-12.49042144 23.99558183 -12.54242157 20.65642076 -12.59375 17.31640625 C-12.64402344 15.57810547 -12.64402344 15.57810547 -12.6953125 13.8046875 C-12.70820313 12.68964844 -12.72109375 11.57460937 -12.734375 10.42578125 C-12.75532227 9.39936523 -12.77626953 8.37294922 -12.79785156 7.31542969 C-12.34375 4.56640625 -12.34375 4.56640625 -10.84082031 2.2355957 C-7.33278621 -0.10938173 -4.08197767 -0.02608572 0 0 Z " fill="#4F5BFA" transform="translate(41.34375,-0.56640625)"/>
<path d="M0 0 C2.09847541 -0.00964705 4.19594665 -0.04062761 6.29418945 -0.07226562 C7.63728261 -0.0788016 8.98038276 -0.08404973 10.32348633 -0.08789062 C12.15206177 -0.10190918 12.15206177 -0.10190918 14.01757812 -0.11621094 C18.92924754 0.39582315 22.20816392 2.01163071 25.68676758 5.49023438 C29.53213885 11.53296066 29.77709372 17.64756947 29.74926758 24.61523438 C29.76538086 25.41445313 29.78149414 26.21367188 29.7980957 27.03710938 C29.80305661 33.1687893 29.20177347 40.05830962 25.02001953 44.87060547 C20.31179239 48.9435668 16.65264947 49.36753293 10.61645508 49.37304688 C9.95719025 49.3740036 9.29792542 49.37496033 8.61868286 49.37594604 C7.22845362 49.37662542 5.83822117 49.37478804 4.44799805 49.37060547 C2.31267244 49.36523665 0.17755555 49.37056731 -1.95776367 49.37695312 C-3.30802455 49.37629264 -4.65828531 49.37501208 -6.00854492 49.37304688 C-7.2410498 49.37191895 -8.47355469 49.37079102 -9.7434082 49.36962891 C-12.56323242 49.24023438 -12.56323242 49.24023438 -13.56323242 48.24023438 C-13.66145986 46.77218145 -13.69121612 45.29945977 -13.69262695 43.828125 C-13.69735519 42.42161682 -13.69735519 42.42161682 -13.70217896 40.98669434 C-13.70015472 39.96692505 -13.69813049 38.94715576 -13.69604492 37.89648438 C-13.69700165 36.85705688 -13.69795837 35.81762939 -13.69894409 34.7467041 C-13.69962605 32.54418884 -13.69777069 30.34167158 -13.69360352 28.13916016 C-13.6882555 24.75483718 -13.69354801 21.37064694 -13.69995117 17.98632812 C-13.69929039 15.85221325 -13.69800924 13.71809845 -13.69604492 11.58398438 C-13.69806915 10.56421509 -13.70009338 9.5444458 -13.70217896 8.49377441 C-13.69902679 7.55610229 -13.69587463 6.61843018 -13.69262695 5.65234375 C-13.69183136 4.82263062 -13.69103577 3.99291748 -13.69021606 3.13806152 C-13.33898563 -2.11123389 -4.12117589 0.0114756 0 0 Z M-2.56323242 8.24023438 C-2.56323242 18.47023438 -2.56323242 28.70023438 -2.56323242 39.24023438 C10.94605559 40.35826836 10.94605559 40.35826836 16.43676758 37.24023438 C19.58014281 28.75312125 19.74694581 18.69957875 16.43676758 10.24023438 C14.44573566 7.80187769 14.44573566 7.80187769 10.52270508 8.04492188 C8.9522594 8.05636881 7.3819106 8.08234723 5.81176758 8.11523438 C3.04801758 8.15648437 0.28426758 8.19773437 -2.56323242 8.24023438 Z " fill="#2C2C2E" transform="translate(200.563232421875,11.759765625)"/>
<path d="M0 0 C1.25748047 -0.01224609 2.51496094 -0.02449219 3.81054688 -0.03710938 C5.00873047 -0.03904297 6.20691406 -0.04097656 7.44140625 -0.04296875 C8.54299072 -0.04707764 9.6445752 -0.05118652 10.77954102 -0.05541992 C13.4375 0.1875 13.4375 0.1875 15.4375 2.1875 C15.79369999 4.96585991 15.92829573 6.52182647 14.23706055 8.81567383 C11.85916124 10.62837444 10.30368898 10.61333269 7.33203125 10.69921875 C6.34912109 10.73466797 5.36621094 10.77011719 4.35351562 10.80664062 C3.32935547 10.82919922 2.30519531 10.85175781 1.25 10.875 C0.21423828 10.90916016 -0.82152344 10.94332031 -1.88867188 10.97851562 C-4.4465066 11.06102642 -7.00399723 11.13016572 -9.5625 11.1875 C-10.2225 13.8275 -10.8825 16.4675 -11.5625 19.1875 C-10.90652832 19.17702637 -10.25055664 19.16655273 -9.57470703 19.15576172 C-6.61234342 19.11427497 -3.65004084 19.08819738 -0.6875 19.0625 C0.34503906 19.04574219 1.37757813 19.02898438 2.44140625 19.01171875 C3.42753906 19.00527344 4.41367187 18.99882812 5.4296875 18.9921875 C6.79649658 18.97647705 6.79649658 18.97647705 8.19091797 18.96044922 C10.4375 19.1875 10.4375 19.1875 12.4375 21.1875 C12.6875 24.1875 12.6875 24.1875 12.4375 27.1875 C10.4375 29.1875 10.4375 29.1875 8.19091797 29.41455078 C7.27971191 29.40407715 6.36850586 29.39360352 5.4296875 29.3828125 C4.44355469 29.37636719 3.45742188 29.36992188 2.44140625 29.36328125 C0.89259766 29.33814453 0.89259766 29.33814453 -0.6875 29.3125 C-1.72777344 29.30347656 -2.76804687 29.29445313 -3.83984375 29.28515625 C-6.41429092 29.26153747 -8.98828212 29.22860149 -11.5625 29.1875 C-10.9025 32.1575 -10.2425 35.1275 -9.5625 38.1875 C-8.58639771 38.20937378 -8.58639771 38.20937378 -7.59057617 38.23168945 C-4.64311694 38.30614549 -1.69679358 38.40281266 1.25 38.5 C2.27416016 38.52255859 3.29832031 38.54511719 4.35351562 38.56835938 C5.82788086 38.6215332 5.82788086 38.6215332 7.33203125 38.67578125 C8.23800049 38.70196533 9.14396973 38.72814941 10.07739258 38.75512695 C12.85365115 39.26373913 13.77774992 39.93635637 15.4375 42.1875 C15.75 44.75 15.75 44.75 15.4375 47.1875 C12.19698874 50.42801126 8.32296517 49.48344455 3.90820312 49.50976562 C2.65974609 49.50654297 1.41128906 49.50332031 0.125 49.5 C-1.11185547 49.51611328 -2.34871094 49.53222656 -3.62304688 49.54882812 C-4.81607422 49.54947266 -6.00910156 49.55011719 -7.23828125 49.55078125 C-8.33052002 49.55376221 -9.42275879 49.55674316 -10.5480957 49.55981445 C-14.81175824 49.03320189 -17.45562282 47.41297117 -20.3125 44.25 C-23.79544511 38.50314057 -22.78517516 31.3544025 -22.8125 24.875 C-22.833125 23.66392578 -22.85375 22.45285156 -22.875 21.20507812 C-22.90709669 13.87499648 -22.78719178 8.21836472 -18.0625 2.3125 C-13.18305343 -1.34708493 -5.76531133 0.00296417 0 0 Z " fill="#272728" transform="translate(263.5625,11.8125)"/>
<path d="M0 0 C1.25361328 0.00322266 2.50722656 0.00644531 3.79882812 0.00976562 C5.76432617 0.02233398 5.76432617 0.02233398 7.76953125 0.03515625 C9.10481606 0.04017308 10.44010266 0.04473566 11.77539062 0.04882812 C15.04431598 0.0606293 18.31315116 0.07709328 21.58203125 0.09765625 C21.77734375 6.15234375 21.77734375 6.15234375 21.58203125 8.09765625 C19.06074769 10.61893981 18.06964112 10.39118694 14.57421875 10.51171875 C13.09501953 10.56972656 13.09501953 10.56972656 11.5859375 10.62890625 C10.03712891 10.6753125 10.03712891 10.6753125 8.45703125 10.72265625 C7.41675781 10.76132812 6.37648438 10.8 5.3046875 10.83984375 C2.73064814 10.93430391 0.1566197 11.01986839 -2.41796875 11.09765625 C-3.07796875 13.73765625 -3.73796875 16.37765625 -4.41796875 19.09765625 C-3.76199707 19.0819458 -3.10602539 19.06623535 -2.43017578 19.05004883 C0.53213941 18.98781973 3.49431735 18.94870457 6.45703125 18.91015625 C7.48957031 18.88501953 8.52210938 18.85988281 9.5859375 18.83398438 C10.57207031 18.82431641 11.55820312 18.81464844 12.57421875 18.8046875 C13.4854248 18.78897705 14.39663086 18.7732666 15.33544922 18.75708008 C16.07682129 18.86947021 16.81819336 18.98186035 17.58203125 19.09765625 C19.58203125 22.09765625 19.58203125 22.09765625 19.26953125 25.22265625 C18.58203125 28.09765625 18.58203125 28.09765625 17.58203125 29.09765625 C15.94730243 29.18465967 14.3088907 29.20466688 12.671875 29.1953125 C11.68251953 29.19208984 10.69316406 29.18886719 9.67382812 29.18554688 C8.63291016 29.17716797 7.59199219 29.16878906 6.51953125 29.16015625 C5.47474609 29.15564453 4.42996094 29.15113281 3.35351562 29.14648438 C0.76296465 29.13465538 -1.82747434 29.11817314 -4.41796875 29.09765625 C-3.75796875 32.06765625 -3.09796875 35.03765625 -2.41796875 38.09765625 C-1.76199707 38.11747559 -1.10602539 38.13729492 -0.43017578 38.15771484 C2.53264194 38.25278132 5.49473657 38.36253377 8.45703125 38.47265625 C9.48957031 38.50359375 10.52210938 38.53453125 11.5859375 38.56640625 C12.57207031 38.60507812 13.55820312 38.64375 14.57421875 38.68359375 C15.4854248 38.71501465 16.39663086 38.74643555 17.33544922 38.77880859 C19.58203125 39.09765625 19.58203125 39.09765625 21.58203125 41.09765625 C21.76953125 44.66015625 21.76953125 44.66015625 21.58203125 48.09765625 C18.88920406 50.79048344 10.95578823 49.33278955 7.33203125 49.34765625 C6.09066406 49.36828125 4.84929687 49.38890625 3.5703125 49.41015625 C2.37277344 49.4153125 1.17523438 49.42046875 -0.05859375 49.42578125 C-1.15719727 49.43512695 -2.25580078 49.44447266 -3.38769531 49.45410156 C-7.69528606 48.94740784 -10.33357203 47.33696679 -13.16796875 44.09765625 C-16.4580163 38.83358017 -15.64070155 32.80726697 -15.65820312 26.81079102 C-15.6678838 24.80277598 -15.69908166 22.79490243 -15.73046875 20.78710938 C-15.735625 19.51158203 -15.74078125 18.23605469 -15.74609375 16.921875 C-15.75543945 15.75744873 -15.76478516 14.59302246 -15.77441406 13.39331055 C-15.29684505 8.97775982 -13.74206609 5.6976072 -10.91796875 2.28515625 C-7.57078421 -0.36469818 -4.07355123 -0.01843236 0 0 Z " fill="#272728" transform="translate(490.41796875,11.90234375)"/>
<path d="M0 0 C3.48074771 -0.56728484 6.53649898 -0.74326226 10 0 C13.00190949 2.58513407 14.94079312 5.64081637 17 9 C17.8097414 10.18938277 18.62174239 11.37723546 19.4375 12.5625 C19.953125 13.366875 20.46875 14.17125 21 15 C21.54269531 14.25234375 22.08539063 13.5046875 22.64453125 12.734375 C23.35996094 11.74953125 24.07539063 10.7646875 24.8125 9.75 C25.87404297 8.28820312 25.87404297 8.28820312 26.95703125 6.796875 C27.63121094 5.87390625 28.30539062 4.9509375 29 4 C29.474375 3.2265625 29.94875 2.453125 30.4375 1.65625 C32 0 32 0 34.48046875 -0.390625 C35.82044922 -0.32101562 35.82044922 -0.32101562 37.1875 -0.25 C38.08855469 -0.21390625 38.98960937 -0.1778125 39.91796875 -0.140625 C40.94857422 -0.07101562 40.94857422 -0.07101562 42 0 C42.79296875 1.60546875 42.79296875 1.60546875 43 4 C41.51496004 6.27666447 40.05134553 8.24747104 38.3125 10.3125 C34.70318792 14.69041379 31.70558334 19.00069026 29 24 C30.93651931 26.75069178 32.87438842 29.50042994 34.8125 32.25 C35.35970703 33.02730469 35.90691406 33.80460937 36.47070312 34.60546875 C37.00244141 35.35957031 37.53417969 36.11367188 38.08203125 36.890625 C38.56905518 37.58188477 39.0560791 38.27314453 39.55786133 38.98535156 C40.56507927 40.39242155 41.6174548 41.7677662 42.7019043 43.11621094 C44 45 44 45 43.6875 47.25 C43.460625 47.8275 43.23375 48.405 43 49 C41.41820385 49.10867302 39.83422847 49.18589827 38.25 49.25 C37.36828125 49.29640625 36.4865625 49.3428125 35.578125 49.390625 C32.13079302 48.86830197 31.18487185 47.67736345 29 45 C27.7017055 43.15811065 26.45217697 41.28101562 25.25 39.375 C24.32960938 37.93253906 24.32960938 37.93253906 23.390625 36.4609375 C22 34 22 34 22 32 C21.34 32 20.68 32 20 32 C19.74089844 32.69480469 19.48179687 33.38960937 19.21484375 34.10546875 C16.90144641 39.61745406 14.20235909 44.70350807 10 49 C6.1388328 50.00968761 2.89064462 49.77240739 -1 49 C-1.495 47.515 -1.495 47.515 -2 46 C-0.9519043 43.97875977 -0.9519043 43.97875977 0.67578125 41.69140625 C1.54686523 40.44713867 1.54686523 40.44713867 2.43554688 39.17773438 C3.05494141 38.31470703 3.67433594 37.45167969 4.3125 36.5625 C5.51904248 34.85696327 6.72354763 33.14998303 7.92578125 31.44140625 C8.73656128 30.30747437 8.73656128 30.30747437 9.5637207 29.15063477 C10.89636505 27.15517938 11.9822951 25.16981204 13 23 C12.60619141 22.48091064 12.21238281 21.96182129 11.80664062 21.42700195 C10.02529372 19.06460921 8.26260608 16.68890342 6.5 14.3125 C5.87996094 13.49587891 5.25992187 12.67925781 4.62109375 11.83789062 C4.03457031 11.04189453 3.44804687 10.24589844 2.84375 9.42578125 C2.02680664 8.33390503 2.02680664 8.33390503 1.19335938 7.2199707 C-0.20429766 4.61995117 -0.23257923 2.90947676 0 0 Z " fill="#272728" transform="translate(286,12)"/>
<path d="M0 0 C0.80610718 -0.00619858 1.61221436 -0.01239716 2.44274902 -0.01878357 C4.14394932 -0.02587499 5.84521912 -0.02271945 7.54638672 -0.01000977 C10.14810887 0.00386284 12.74623754 -0.03022623 15.34765625 -0.06835938 C17.00260505 -0.06931056 18.65755834 -0.06745176 20.3125 -0.0625 C21.08863647 -0.07575821 21.86477295 -0.08901642 22.66442871 -0.10267639 C26.52270948 -0.03621232 28.29361912 0.23431012 31.18164062 2.87915039 C33.19391702 6.54622427 32.75946803 8.59482133 31.65625 12.56640625 C30.61303711 14.25244141 30.61303711 14.25244141 28.65625 15.56640625 C25.83248448 15.86479046 23.23388213 15.98679136 20.41015625 15.96484375 C19.60263412 15.96771393 18.795112 15.97058411 17.96311951 15.97354126 C16.25592345 15.97558189 14.54870401 15.97005203 12.84155273 15.95751953 C10.23172507 15.94148596 7.62345089 15.95735665 5.01367188 15.9765625 C3.35416325 15.97457966 1.6946556 15.97073513 0.03515625 15.96484375 C-0.74411728 15.97091644 -1.52339081 15.97698914 -2.32627869 15.98324585 C-5.53730709 15.94169446 -7.95571357 15.7654987 -10.83618164 14.28759766 C-12.91507897 11.91411974 -12.82769449 9.67050758 -12.875 6.6015625 C-11.16624045 0.05550569 -5.79842813 -0.03705463 0 0 Z " fill="#4F5AFA" transform="translate(41.34375,57.43359375)"/>
<path d="M0 0 C2.1640625 -0.29296875 2.1640625 -0.29296875 4.625 -0.1875 C5.44226563 -0.16042969 6.25953125 -0.13335937 7.1015625 -0.10546875 C8.04128906 -0.05326172 8.04128906 -0.05326172 9 0 C10.18312497 2.36624995 10.12680202 3.7952657 10.12939453 6.43383789 C10.13254669 7.35141373 10.13569885 8.26898956 10.13894653 9.21437073 C10.1369223 10.20710495 10.13489807 11.19983917 10.1328125 12.22265625 C10.13376923 13.23847275 10.13472595 14.25428925 10.13571167 15.30088806 C10.13639289 17.45034853 10.13454261 19.59981105 10.13037109 21.74926758 C10.12501655 25.05229272 10.13032088 28.35518221 10.13671875 31.65820312 C10.13605807 33.7421878 10.13477711 35.82617239 10.1328125 37.91015625 C10.13483673 38.9049147 10.13686096 39.89967316 10.13894653 40.92457581 C10.13579437 41.83899948 10.13264221 42.75342316 10.12939453 43.69555664 C10.12820114 44.9089547 10.12820114 44.9089547 10.12698364 46.14686584 C10 48 10 48 9 49 C7.00390625 49.203125 7.00390625 49.203125 4.5625 49.25 C3.75941406 49.27578125 2.95632813 49.3015625 2.12890625 49.328125 C1.42636719 49.21984375 0.72382813 49.1115625 0 49 C-2.06013396 45.90979905 -2.25135713 45.25427888 -2.25878906 41.75976562 C-2.26509338 40.90878296 -2.27139771 40.05780029 -2.27789307 39.18103027 C-2.2738446 38.26535278 -2.26979614 37.34967529 -2.265625 36.40625 C-2.26753845 35.46317993 -2.2694519 34.52010986 -2.27142334 33.54846191 C-2.27278431 31.55460341 -2.26909403 29.56073601 -2.26074219 27.56689453 C-2.25004148 24.51184214 -2.26064052 21.45737781 -2.2734375 18.40234375 C-2.27211589 16.46614453 -2.26955347 14.52994568 -2.265625 12.59375 C-2.26967346 11.67807251 -2.27372192 10.76239502 -2.27789307 9.81896973 C-2.27158875 8.96798706 -2.26528442 8.11700439 -2.25878906 7.24023438 C-2.25719788 6.49205444 -2.25560669 5.74387451 -2.25396729 4.97302246 C-2 3 -2 3 0 0 Z " fill="#313134" transform="translate(398,12)"/>
<path d="M0 0 C2.1640625 -0.29296875 2.1640625 -0.29296875 4.625 -0.1875 C5.44226563 -0.16042969 6.25953125 -0.13335937 7.1015625 -0.10546875 C8.04128906 -0.05326172 8.04128906 -0.05326172 9 0 C10.17022189 2.34044379 10.12676545 3.71905714 10.12939453 6.32617188 C10.13254669 7.22049927 10.13569885 8.11482666 10.13894653 9.03625488 C10.1369223 10.00397827 10.13489807 10.97170166 10.1328125 11.96875 C10.13376923 12.95999878 10.13472595 13.95124756 10.13571167 14.97253418 C10.13639293 17.07072005 10.13454243 19.16890801 10.13037109 21.26708984 C10.12502209 24.4867016 10.13031794 27.70617385 10.13671875 30.92578125 C10.13605796 32.96093781 10.13477678 34.99609428 10.1328125 37.03125 C10.13483673 37.99897339 10.13686096 38.96669678 10.13894653 39.96374512 C10.13579437 40.85807251 10.13264221 41.7523999 10.12939453 42.67382812 C10.12820114 43.85724792 10.12820114 43.85724792 10.12698364 45.0645752 C10 47 10 47 9 49 C7.54257537 49.08096803 6.08387193 49.13917774 4.625 49.1875 C3.81289062 49.22230469 3.00078125 49.25710937 2.1640625 49.29296875 C1.44992188 49.19628906 0.73578125 49.09960938 0 49 C-2.06013396 45.90979905 -2.25135713 45.25427888 -2.25878906 41.75976562 C-2.26509338 40.90878296 -2.27139771 40.05780029 -2.27789307 39.18103027 C-2.2738446 38.26535278 -2.26979614 37.34967529 -2.265625 36.40625 C-2.26753845 35.46317993 -2.2694519 34.52010986 -2.27142334 33.54846191 C-2.27278431 31.55460341 -2.26909403 29.56073601 -2.26074219 27.56689453 C-2.25004148 24.51184214 -2.26064052 21.45737781 -2.2734375 18.40234375 C-2.27211589 16.46614453 -2.26955347 14.52994568 -2.265625 12.59375 C-2.26967346 11.67807251 -2.27372192 10.76239502 -2.27789307 9.81896973 C-2.27158875 8.96798706 -2.26528442 8.11700439 -2.25878906 7.24023438 C-2.25719788 6.49205444 -2.25560669 5.74387451 -2.25396729 4.97302246 C-2 3 -2 3 0 0 Z " fill="#333333" transform="translate(108,12)"/>
<path d="M0 0 C1.90625 0.48828125 1.90625 0.48828125 4.40625 2.67578125 C6.04845546 5.75491649 6.58814464 7.07880803 5.90625 10.48828125 C4.40625 13.30078125 4.40625 13.30078125 1.90625 15.48828125 C-0.89259087 16.15357949 -3.28860555 16.10334366 -6.09375 15.48828125 C-8.59375 13.86328125 -8.59375 13.86328125 -10.09375 11.48828125 C-10.73031938 7.74843616 -10.34959708 5.97865481 -8.59375 2.61328125 C-5.56399634 0.03799064 -3.88747144 -0.25384608 0 0 Z " fill="#2A2A2B" transform="translate(68.09375,28.51171875)"/>
<path d="M0 0 C2.4375 1.5625 2.4375 1.5625 4 4 C4.55802097 7.90614682 4.58392818 10.05111671 2.5 13.4375 C-1.24892004 15.78057502 -3.61035762 15.48773804 -8 15 C-10 14 -10 14 -11 12 C-11.75471698 5.20754717 -11.75471698 5.20754717 -9.4375 1.5 C-6.05111671 -0.58392818 -3.90614682 -0.55802097 0 0 Z " fill="#282829" transform="translate(11,58)"/>
<path d="M0 0 C2.5 1.5625 2.5 1.5625 4 4 C4.56288002 7.94016013 4.60396028 10.05782196 2.4375 13.4375 C-0.94217804 15.60396028 -3.05983987 15.56288002 -7 15 C-9.4375 13.5 -9.4375 13.5 -11 11 C-11.6227188 7.48305406 -11.63278358 4.26556715 -10 1 C-6.73443285 -0.63278358 -3.51694594 -0.6227188 0 0 Z " fill="#282829" transform="translate(11,0)"/>
</svg>
