<svg width="32" height="32" viewBox="0 0 32 32" fill="none" xmlns="http://www.w3.org/2000/svg">
<g clip-path="url(#clip0_65_3956)">
<path d="M16 32C24.8366 32 32 24.8366 32 16C32 7.16344 24.8366 0 16 0C7.16344 0 0 7.16344 0 16C0 24.8366 7.16344 32 16 32Z" fill="#3B5998"/>
<path d="M22 32V20H26L27 15H22V13C22 11 23.002 10 25 10H27V5C26 5 24.76 5 23 5C19.325 5 17 7.881 17 12V15H13V20H17V32H22Z" fill="white"/>
</g>
<defs>
<clipPath id="clip0_65_3956">
<rect width="32" height="32" fill="white"/>
</clipPath>
</defs>
</svg>
