<svg width="32" height="32" viewBox="0 0 32 32" fill="none" xmlns="http://www.w3.org/2000/svg">
<g clip-path="url(#clip0_65_3962)">
<path d="M16 32C7.1648 32 0 24.8352 0 16C0 7.1648 7.1648 0 16 0C24.8352 0 32 7.1648 32 16C32 24.8352 24.8352 32 16 32Z" fill="url(#paint0_linear_65_3962)"/>
<path d="M16 7.04637C18.9152 7.04637 19.2608 7.05597 20.4128 7.11037C21.4784 7.15837 22.0576 7.33757 22.4416 7.48797C22.9504 7.68637 23.3152 7.92317 23.696 8.30397C24.0768 8.68477 24.3136 9.04957 24.512 9.55837C24.6624 9.94237 24.8384 10.5216 24.8896 11.5872C24.9408 12.7392 24.9536 13.0848 24.9536 16C24.9536 18.9152 24.944 19.2608 24.8896 20.4128C24.8416 21.4784 24.6624 22.0576 24.512 22.4416C24.3136 22.9504 24.0768 23.3152 23.696 23.696C23.3152 24.0768 22.9504 24.3136 22.4416 24.512C22.0576 24.6624 21.4784 24.8384 20.4128 24.8896C19.2608 24.9408 18.9152 24.9536 16 24.9536C13.0848 24.9536 12.7392 24.944 11.5872 24.8896C10.5216 24.8416 9.9424 24.6624 9.5584 24.512C9.0496 24.3136 8.6848 24.0768 8.304 23.696C7.9232 23.3152 7.6864 22.9504 7.488 22.4416C7.3376 22.0576 7.1616 21.4784 7.1104 20.4128C7.0592 19.2608 7.0464 18.9152 7.0464 16C7.0464 13.0848 7.056 12.7392 7.1104 11.5872C7.1584 10.5216 7.3376 9.94237 7.488 9.55837C7.6864 9.04957 7.9232 8.68477 8.304 8.30397C8.6848 7.92317 9.0496 7.68637 9.5584 7.48797C9.9424 7.33757 10.5216 7.16157 11.5872 7.11037C12.7392 7.05597 13.0848 7.04637 16 7.04637ZM16 5.07837C13.0336 5.07837 12.6624 5.09117 11.4976 5.14557C10.336 5.19997 9.5424 5.38237 8.84479 5.65437C8.128 5.92957 7.5168 6.30397 6.912 6.91197C6.304 7.51997 5.9328 8.12797 5.6512 8.84797C5.3824 9.54237 5.1968 10.336 5.1424 11.5008C5.088 12.6656 5.0752 13.0368 5.0752 16.0032C5.0752 18.9696 5.088 19.3408 5.1424 20.5056C5.1968 21.6672 5.3792 22.4608 5.6512 23.1584C5.9296 23.872 6.304 24.4832 6.912 25.088C7.52 25.696 8.128 26.0672 8.848 26.3488C9.5424 26.6176 10.336 26.8032 11.5008 26.8576C12.6656 26.912 13.0368 26.9248 16.0032 26.9248C18.9696 26.9248 19.3408 26.912 20.5056 26.8576C21.6672 26.8032 22.4608 26.6208 23.1584 26.3488C23.872 26.0704 24.4832 25.696 25.088 25.088C25.696 24.48 26.0672 23.872 26.3488 23.152C26.6176 22.4576 26.8032 21.664 26.8576 20.4992C26.912 19.3344 26.9248 18.9632 26.9248 15.9968C26.9248 13.0304 26.912 12.6592 26.8576 11.4944C26.8032 10.3328 26.6208 9.53917 26.3488 8.84157C26.0704 8.12797 25.696 7.51677 25.088 6.91197C24.48 6.30397 23.872 5.93277 23.152 5.65117C22.4576 5.38237 21.664 5.19677 20.4992 5.14237C19.3376 5.09117 18.9664 5.07837 16 5.07837Z" fill="white"/>
<path d="M16 10.3904C12.9024 10.3904 10.3904 12.9024 10.3904 16C10.3904 19.0976 12.9024 21.6096 16 21.6096C19.0976 21.6096 21.6096 19.0976 21.6096 16C21.6096 12.9024 19.0976 10.3904 16 10.3904ZM16 19.6416C13.9904 19.6416 12.3584 18.0128 12.3584 16C12.3584 13.9872 13.9904 12.3584 16 12.3584C18.0096 12.3584 19.6416 13.9872 19.6416 16C19.6416 18.0128 18.0096 19.6416 16 19.6416Z" fill="white"/>
<path d="M21.8303 11.4817C22.5549 11.4817 23.1423 10.8943 23.1423 10.1697C23.1423 9.44507 22.5549 8.85767 21.8303 8.85767C21.1057 8.85767 20.5183 9.44507 20.5183 10.1697C20.5183 10.8943 21.1057 11.4817 21.8303 11.4817Z" fill="white"/>
</g>
<defs>
<linearGradient id="paint0_linear_65_3962" x1="4.68629" y1="27.3137" x2="27.3137" y2="4.68629" gradientUnits="userSpaceOnUse">
<stop stop-color="#FFD521"/>
<stop offset="0.0551048" stop-color="#FFD020"/>
<stop offset="0.1241" stop-color="#FEC01E"/>
<stop offset="0.2004" stop-color="#FCA71B"/>
<stop offset="0.2821" stop-color="#FA8316"/>
<stop offset="0.3681" stop-color="#F85510"/>
<stop offset="0.4563" stop-color="#F51E09"/>
<stop offset="0.5" stop-color="#F30005"/>
<stop offset="0.5035" stop-color="#F20007"/>
<stop offset="0.5966" stop-color="#E1003B"/>
<stop offset="0.6879" stop-color="#D30067"/>
<stop offset="0.7757" stop-color="#C70088"/>
<stop offset="0.8589" stop-color="#BF00A0"/>
<stop offset="0.9357" stop-color="#BB00AF"/>
<stop offset="1" stop-color="#B900B4"/>
</linearGradient>
<clipPath id="clip0_65_3962">
<rect width="32" height="32" fill="white"/>
</clipPath>
</defs>
</svg>
