<svg width="30" height="30" viewBox="0 0 30 30" fill="none" xmlns="http://www.w3.org/2000/svg">
<g clip-path="url(#clip0_301_1438)">
<path d="M15 30C23.2843 30 30 23.2843 30 15C30 6.71573 23.2843 0 15 0C6.71573 0 0 6.71573 0 15C0 23.2843 6.71573 30 15 30Z" fill="#1CB7EB"/>
<path d="M23 9.625C22.4375 9.9375 21.75 10.125 21.125 10.1875C21.8125 9.75 22.3125 9.0625 22.5625 8.25C21.9375 8.625 21.25 8.9375 20.4375 9.125C19.8125 8.4375 19 8 18.0625 8C16.25 8 14.75 9.5625 14.75 11.5625C14.75 11.8125 14.75 12.125 14.8125 12.375C12.0625 12.25 9.625 10.8125 8 8.6875C7.6875 9.1875 7.5625 9.8125 7.5625 10.5C7.5625 11.75 8.125 12.8125 9 13.4375C8.4375 13.4375 7.9375 13.25 7.5 13V13.0625C7.5 14.75 8.625 16.1875 10.125 16.5625C9.875 16.625 9.5625 16.6875 9.25 16.6875C9.0625 16.6875 8.8125 16.6875 8.625 16.625C9.0625 18.0625 10.25 19.0625 11.6875 19.0625C10.5625 20 9.125 20.5625 7.625 20.5625C7.375 20.5625 7.125 20.5625 6.8125 20.5C8.25 21.5 10 22.125 11.875 22.125C17.9375 22.125 21.25 16.75 21.25 12.0625C21.25 11.9375 21.25 11.75 21.25 11.625C22 11 22.5625 10.375 23 9.625Z" fill="white"/>
</g>
<defs>
<clipPath id="clip0_301_1438">
<rect width="30" height="30" fill="white"/>
</clipPath>
</defs>
</svg>
