<svg width="15" height="19" viewBox="0 0 15 19" fill="none" xmlns="http://www.w3.org/2000/svg">
<g clip-path="url(#clip0_180_470)">
<path d="M4.54593 14.6878C4.54593 14.6878 3.81918 15.1093 5.06316 15.2519C6.57025 15.4233 7.34045 15.3988 9.00128 15.0853C9.00128 15.0853 9.43795 15.3583 10.0477 15.5948C6.32466 17.186 1.62162 15.5026 4.54593 14.6878ZM4.09098 12.6113C4.09098 12.6113 3.27585 13.2131 4.52077 13.3415C6.13066 13.5071 7.40202 13.5206 9.60199 13.0982C9.60199 13.0982 9.90629 13.4058 10.3847 13.5741C5.88331 14.8867 0.869537 13.6776 4.09098 12.6113Z" fill="#5382A1"/>
<path d="M7.92639 9.08914C8.84378 10.1424 7.68537 11.0902 7.68537 11.0902C7.68537 11.0902 10.0147 9.89104 8.94494 8.38938C7.94583 6.98909 7.17959 6.29323 11.3275 3.89429C11.3275 3.89429 4.81667 5.51593 7.92639 9.08914Z" fill="#E76F00"/>
<path d="M12.8502 16.2236C12.8502 16.2236 13.388 16.6655 12.2578 17.0074C10.1088 17.6567 3.31343 17.8527 1.42567 17.0333C0.747102 16.739 2.01967 16.3304 2.41994 16.2446C2.83739 16.1543 3.07599 16.1712 3.07599 16.1712C2.32132 15.641 -1.80188 17.2122 0.981626 17.6621C8.57257 18.8897 14.8192 17.1093 12.8502 16.2236ZM4.89519 10.4598C4.89519 10.4598 1.43867 11.2786 3.67119 11.5758C4.6138 11.7017 6.49291 11.6733 8.24328 11.527C9.67377 11.4067 11.1102 11.1508 11.1102 11.1508C11.1102 11.1508 10.6058 11.3662 10.2408 11.6147C6.73074 12.5353 -0.0501369 12.1071 1.90199 11.1654C3.55291 10.3696 4.89519 10.4598 4.89519 10.4598ZM11.0959 13.9162C14.6641 12.0672 13.0143 10.2903 11.8628 10.5297C11.5805 10.5882 11.4547 10.639 11.4547 10.639C11.4547 10.639 11.5595 10.4753 11.7596 10.4045C14.0377 9.60577 15.7897 12.7601 11.0242 14.0094C11.0242 14.0094 11.0794 13.9602 11.0959 13.9162Z" fill="#5382A1"/>
<path d="M8.94466 0.0203186C8.94466 0.0203186 10.9208 1.99171 7.07039 5.02297C3.98281 7.45464 6.36632 8.8411 7.06913 10.4252C5.26683 8.80359 3.94416 7.37606 4.83154 6.04749C6.13389 4.09714 9.74195 3.15164 8.94466 0.0203186Z" fill="#E76F00"/>
<path d="M5.24592 18.9264C8.67094 19.1451 13.9304 18.8051 14.055 17.189C14.055 17.189 13.8156 17.8017 11.2244 18.2882C8.30107 18.8368 4.6956 18.7728 2.55713 18.4212C2.55718 18.4212 2.99484 18.7825 5.24592 18.9264Z" fill="#5382A1"/>
</g>
<defs>
<clipPath id="clip0_180_470">
<rect width="14.0968" height="19" fill="white"/>
</clipPath>
</defs>
</svg>
