<svg width="17" height="17" viewBox="0 0 17 17" fill="none" xmlns="http://www.w3.org/2000/svg">
<path d="M8.41914 1.62657C7.85841 1.62923 7.32318 1.67691 6.85196 1.76031C5.46407 2.00548 5.21225 2.51867 5.21225 3.46523V4.71513H8.49179V5.13176H3.98135C3.02828 5.13176 2.19369 5.70458 1.93258 6.7947C1.63136 8.0438 1.61808 8.82341 1.93258 10.1278C2.16567 11.0988 2.72242 11.7904 3.67561 11.7904H4.80332V10.2921C4.80332 9.2095 5.73978 8.25471 6.85209 8.25471H10.1279C11.0398 8.25471 11.7676 7.50379 11.7676 6.58818V3.46536C11.7676 2.57645 11.0178 1.9088 10.1279 1.76045C9.56425 1.66668 8.97975 1.62405 8.41914 1.62657ZM6.64557 2.63183C6.98424 2.63183 7.26102 2.91299 7.26102 3.25884C7.26102 3.60322 6.98437 3.88173 6.64557 3.88173C6.30557 3.88173 6.03025 3.60322 6.03025 3.25884C6.03011 2.91299 6.30557 2.63183 6.64557 2.63183Z" fill="url(#paint0_linear_180_476)"/>
<path d="M12.1767 5.13197V6.58839C12.1767 7.7173 11.2194 8.66757 10.1279 8.66757H6.85211C5.95482 8.66757 5.2124 9.43563 5.2124 10.3342V13.4573C5.2124 14.346 5.98511 14.8689 6.85211 15.1237C7.89017 15.4288 8.88573 15.484 10.1279 15.1237C10.9535 14.8845 11.7676 14.4035 11.7676 13.4573V12.2073H8.49194V11.7905H13.4076C14.3607 11.7905 14.7161 11.1258 15.0476 10.1278C15.39 9.10054 15.3752 8.11255 15.0476 6.79478C14.812 5.84584 14.3621 5.13184 13.4076 5.13184L12.1767 5.13197ZM10.3342 13.0406C10.6743 13.0406 10.9496 13.3191 10.9496 13.6637C10.9496 14.0093 10.6742 14.2905 10.3342 14.2905C9.99551 14.2905 9.71886 14.0093 9.71886 13.6637C9.71886 13.3191 9.99551 13.0406 10.3342 13.0406Z" fill="url(#paint1_linear_180_476)"/>
<path opacity="0.444" d="M12.9237 15.8838C12.9237 16.3543 10.956 16.7359 8.52882 16.7359C6.10154 16.7359 4.13379 16.3543 4.13379 15.8838C4.13379 15.4131 6.10141 15.0315 8.52882 15.0315C10.956 15.0315 12.9237 15.4129 12.9237 15.8838Z" fill="url(#paint2_radial_180_476)"/>
<defs>
<linearGradient id="paint0_linear_180_476" x1="1.37289" y1="2.01739" x2="8.93707" y2="8.46808" gradientUnits="userSpaceOnUse">
<stop stop-color="#5A9FD4"/>
<stop offset="1" stop-color="#306998"/>
</linearGradient>
<linearGradient id="paint1_linear_180_476" x1="11.7831" y1="12.4781" x2="9.07052" y2="8.67411" gradientUnits="userSpaceOnUse">
<stop stop-color="#FFD43B"/>
<stop offset="1" stop-color="#FFE873"/>
</linearGradient>
<radialGradient id="paint2_radial_180_476" cx="0" cy="0" r="1" gradientUnits="userSpaceOnUse" gradientTransform="translate(8.51106 15.8594) rotate(-90) scale(0.852433 3.74715)">
<stop stop-color="#B8B8B8" stop-opacity="0.498"/>
<stop offset="1" stop-color="#7F7F7F" stop-opacity="0"/>
</radialGradient>
</defs>
</svg>
