<svg width="38" height="43" viewBox="0 0 38 43" fill="none" xmlns="http://www.w3.org/2000/svg">
<path d="M34 0.25H4C3.00544 0.25 2.05161 0.645088 1.34835 1.34835C0.645088 2.05161 0.25 3.00544 0.25 4V31C0.25 31.9946 0.645088 32.9484 1.34835 33.6516C2.05161 34.3549 3.00544 34.75 4 34.75H6.25V40C6.25002 40.4276 6.37188 40.8463 6.60131 41.2072C6.83074 41.568 7.15824 41.856 7.54545 42.0374C7.93266 42.2188 8.36354 42.2861 8.78763 42.2314C9.21172 42.1768 9.61145 42.0024 9.94 41.7288L18.3138 34.75H25.9563C26.8339 34.7491 27.6835 34.4413 28.3581 33.88L36.4 27.1787C36.8233 26.8274 37.1638 26.3869 37.3971 25.8887C37.6305 25.3905 37.751 24.847 37.75 24.2969V4C37.75 3.00544 37.3549 2.05161 36.6517 1.34835C35.9484 0.645088 34.9946 0.25 34 0.25ZM33.25 23.9463L25.6863 30.25H18.0438C17.1661 30.2509 16.3165 30.5587 15.6419 31.12L10.75 35.1963V32.5C10.75 31.9033 10.5129 31.331 10.091 30.909C9.66903 30.4871 9.09674 30.25 8.5 30.25H4.75V4.75H33.25V23.9463ZM24.25 20.5V11.5C24.25 10.9033 24.4871 10.331 24.909 9.90901C25.331 9.48705 25.9033 9.25 26.5 9.25C27.0967 9.25 27.669 9.48705 28.091 9.90901C28.5129 10.331 28.75 10.9033 28.75 11.5V20.5C28.75 21.0967 28.5129 21.669 28.091 22.091C27.669 22.5129 27.0967 22.75 26.5 22.75C25.9033 22.75 25.331 22.5129 24.909 22.091C24.4871 21.669 24.25 21.0967 24.25 20.5ZM15.25 20.5V11.5C15.25 10.9033 15.4871 10.331 15.909 9.90901C16.331 9.48705 16.9033 9.25 17.5 9.25C18.0967 9.25 18.669 9.48705 19.091 9.90901C19.5129 10.331 19.75 10.9033 19.75 11.5V20.5C19.75 21.0967 19.5129 21.669 19.091 22.091C18.669 22.5129 18.0967 22.75 17.5 22.75C16.9033 22.75 16.331 22.5129 15.909 22.091C15.4871 21.669 15.25 21.0967 15.25 20.5Z" fill="#F8F8F8"/>
</svg>
