<?xml version="1.0" standalone="no"?>
<!DOCTYPE svg PUBLIC "-//W3C//DTD SVG 1.1//EN" "http://www.w3.org/Graphics/SVG/1.1/DTD/svg11.dtd" >
<svg xmlns="http://www.w3.org/2000/svg">
<metadata>Generated by IcoMoon</metadata>
<defs>
<font id="icomoon" horiz-adv-x="1024">
<font-face units-per-em="1024" ascent="960" descent="-64" />
<missing-glyph horiz-adv-x="1024" />
<glyph unicode="&#x20;" horiz-adv-x="512" d="" />
<glyph unicode="&#xe900;" glyph-name="city" d="M640-21.396h-85.333v85.333h85.333v-85.333zM810.667 63.937h-85.333v-85.333h85.333v85.333zM640 234.604h-85.333v-85.333h85.333v85.333zM298.667 63.937h-85.333v-85.333h85.333v85.333zM298.667 234.604h-85.333v-85.333h85.333v85.333zM810.667 234.604h-85.333v-85.333h85.333v85.333zM640 405.271h-85.333v-85.333h85.333v85.333zM810.667 405.271h-85.333v-85.333h85.333v85.333zM896 575.937c22.63 0 44.339-8.99 60.342-24.994s24.991-37.708 24.991-60.34v-512h-85.333v512h-426.667v-512h-85.333v341.333h-256v-341.333h-85.333v341.333c0 22.63 8.99 44.339 24.994 60.342 16.003 16.001 37.708 24.991 60.34 24.991h256v85.333c0 22.632 8.991 44.337 24.994 60.34s37.708 24.994 60.34 24.994v85.333c0 22.632 8.991 44.337 24.994 60.34s37.708 24.994 60.34 24.994h85.333v170.667h85.333v-170.667h85.333c22.63 0 44.339-8.99 60.342-24.994s24.991-37.708 24.991-60.34v-85.333zM810.667 575.937v85.333h-256v-85.333h256z" />
<glyph unicode="&#xe901;" glyph-name="rate-type" d="M12.795 643.491c0 75.191 60.954 136.145 136.145 136.145h726.109c75.19 0 136.145-60.955 136.145-136.145v-390.982c0-75.19-60.956-136.145-136.145-136.145h-726.109c-75.191 0-136.145 60.956-136.145 136.145v390.982zM148.941 674.909c-17.352 0-31.418-14.067-31.418-31.418v-390.982c0-17.352 14.067-31.418 31.418-31.418h726.109c17.352 0 31.418 14.066 31.418 31.418v390.982c0 17.352-14.066 31.418-31.418 31.418h-726.109zM511.995 507.345c-32.777 0-59.345-26.57-59.345-59.345s26.568-59.345 59.345-59.345c32.777 0 59.345 26.57 59.345 59.345s-26.568 59.345-59.345 59.345zM347.923 448c0 90.615 73.458 164.073 164.073 164.073s164.073-73.458 164.073-164.073c0-90.615-73.458-164.073-164.073-164.073s-164.073 73.458-164.073 164.073zM828.281 486.135c20.452-20.449 20.452-53.604 0.005-74.053l-1.094-1.093c-20.447-20.45-53.602-20.451-74.054-0.002-20.447 20.449-20.452 53.604 0 74.053l1.094 1.093c20.447 20.45 53.602 20.451 74.049 0.002zM270.831 486.132c20.45-20.449 20.451-53.604 0.002-74.053l-1.093-1.093c-20.449-20.45-53.604-20.451-74.053-0.002s-20.451 53.604-0.002 74.053l1.093 1.094c20.449 20.45 53.604 20.45 74.053 0.001z" />
<glyph unicode="&#xe902;" glyph-name="rate" d="M54.040 803.56c26.405 26.405 62.218 41.24 99.56 41.24h512c37.34 0 73.155-14.834 99.558-41.24 26.409-26.405 41.242-62.218 41.242-99.56v-64h64c77.763 0 140.8-63.038 140.8-140.8v-307.2c0-77.763-63.037-140.8-140.8-140.8h-512c-77.762 0-140.8 63.037-140.8 140.8v64h-64c-37.343 0-73.156 14.833-99.56 41.242-26.405 26.404-41.24 62.216-41.24 99.558v307.2c0 37.343 14.834 73.156 41.24 99.56zM294.4 192c0-35.348 28.654-64 64-64h512c35.348 0 64 28.652 64 64v307.2c0 35.346-28.652 64-64 64h-512c-35.346 0-64-28.654-64-64v-307.2zM217.6 332.8v166.4c0 77.762 63.038 140.8 140.8 140.8h371.2v64c0 16.974-6.743 33.252-18.744 45.255s-28.283 18.745-45.256 18.745h-512c-16.974 0-33.252-6.743-45.255-18.745s-18.745-28.281-18.745-45.255v-307.2c0-16.974 6.743-33.252 18.745-45.255s28.281-18.745 45.255-18.745h64zM614.4 409.6c-35.348 0-64-28.654-64-64 0-35.348 28.652-64 64-64s64 28.652 64 64c0 35.346-28.652 64-64 64zM473.6 345.6c0 77.762 63.037 140.8 140.8 140.8s140.8-63.038 140.8-140.8c0-77.763-63.037-140.8-140.8-140.8s-140.8 63.037-140.8 140.8z" />
<glyph unicode="&#xe903;" glyph-name="address" d="M930.133 721.96l-298.667 201.557c-35.234 23.962-76.855 36.775-119.467 36.775-42.607 0-84.233-12.813-119.467-36.775l-298.667-201.557c-28.922-19.549-52.604-45.896-68.97-76.731s-24.915-65.214-24.897-100.122v-395.777c0.068-56.559 22.566-110.78 62.559-150.775 39.993-39.991 94.216-62.49 150.775-62.558h597.333c56.559 0.068 110.78 22.566 150.775 62.558 39.991 39.996 62.49 94.217 62.558 150.775v395.777c0.017 34.909-8.533 69.288-24.896 100.122-16.367 30.835-40.051 57.182-68.971 76.731zM938.667 149.329c0-33.946-13.487-66.505-37.491-90.509s-56.559-37.491-90.509-37.491h-597.333c-33.948 0-66.505 13.487-90.51 37.491s-37.49 56.563-37.49 90.509v395.777c-0.001 20.953 5.141 41.585 14.976 60.087s24.061 34.306 41.429 46.025l298.667 201.557c21.12 14.348 46.063 22.019 71.595 22.019s50.475-7.671 71.595-22.019l298.667-201.557c17.37-11.72 31.595-27.524 41.429-46.025s14.976-39.134 14.976-60.087v-395.777zM512 661.074c-50.679 0.006-100.217-15.029-142.343-43.201s-74.942-68.213-94.292-115.051c-19.35-46.839-24.364-98.364-14.405-148.053s34.441-95.309 70.346-131.072l77.824-76.117c27.575-26.705 64.461-41.638 102.848-41.638s75.273 14.933 102.848 41.638l78.208 76.459c35.81 35.802 60.194 81.421 70.076 131.085s4.809 101.141-14.566 147.921c-19.379 46.783-52.198 86.767-94.302 114.896s-91.605 43.14-142.242 43.134zM633.003 284.71l-77.867-76.16c-11.571-11.204-27.051-17.472-43.157-17.472s-31.586 6.268-43.157 17.472l-77.525 75.819c-23.852 23.855-40.101 54.242-46.693 87.326s-3.232 67.379 9.656 98.551c12.888 31.177 34.725 57.835 62.754 76.604 28.030 18.771 60.99 28.815 94.727 28.862 33.732 0.047 66.722-9.903 94.805-28.595s49.993-45.286 62.972-76.424c12.975-31.138 16.431-65.425 9.933-98.526s-22.66-63.535-46.447-87.458zM554.667 405.329c0-8.439-2.5-16.687-7.189-23.701-4.689-7.019-11.354-12.489-19.149-15.718-7.795-3.226-16.375-4.070-24.653-2.428-8.277 1.647-15.881 5.713-21.845 11.678-5.969 5.969-10.031 13.572-11.678 21.845-1.647 8.277-0.802 16.858 2.428 24.653s8.7 14.46 15.714 19.149c7.019 4.689 15.266 7.189 23.706 7.189 11.315 0 22.17-4.493 30.17-12.497 8-8 12.497-18.854 12.497-30.17z" />
<glyph unicode="&#xe904;" glyph-name="work-authorization" d="M18.614 725.606c0 80.546 65.296 145.842 145.843 145.842h695.080c80.547 0 145.841-65.296 145.841-145.842v-152.049c0-25.706-20.838-46.545-46.545-46.545s-46.545 20.839-46.545 46.545v152.049c0 29.134-23.617 52.751-52.75 52.751h-695.080c-29.134 0-52.752-23.618-52.752-52.751v-304.095c0-29.137 23.618-52.755 52.752-52.755h319.612c25.707 0 46.545-20.838 46.545-46.545s-20.838-46.545-46.545-46.545h-319.612c-80.547 0-145.843 65.299-145.843 145.846v304.095zM210.795 573.558c0 25.707 20.839 46.545 46.545 46.545h6.518c25.706 0 46.545-20.839 46.545-46.545s-20.839-46.545-46.545-46.545h-6.518c-25.706 0-46.545 20.839-46.545 46.545zM465.45 573.558c0 25.707 20.838 46.545 46.545 46.545h6.516c25.707 0 46.545-20.839 46.545-46.545s-20.838-46.545-46.545-46.545h-6.516c-25.707 0-46.545 20.839-46.545 46.545zM713.514 573.558c0 25.707 20.838 46.545 46.545 46.545h6.516c25.707 0 46.545-20.839 46.545-46.545s-20.838-46.545-46.545-46.545h-6.516c-25.707 0-46.545 20.839-46.545 46.545zM864.526 364.358c-34.067 17.036-74.17 17.036-108.241 0.005l-38.968-19.489v-126.925c0-2.751 2.067-14.029 22.919-35.482 15.951-16.407 39.242-35.007 70.405-55.985 32.14 20.857 55.142 37.339 70.954 52.634 18.381 17.78 21.904 29.002 21.904 38.833v126.925l-38.973 19.484zM714.654 447.623c60.276 30.139 131.23 30.139 191.507 0l64.698-32.349c15.77-7.885 25.73-24.003 25.73-41.63v-155.695c0-43.934-21.322-77.74-50.274-105.742-27.681-26.773-66.728-52.471-111.053-80.463-15.183-9.588-34.527-9.588-49.711 0-46.15 29.142-84.634 57.619-112.067 85.839-26.48 27.243-49.259 60.989-49.259 100.366v155.695c0 17.627 9.961 33.745 25.73 41.63l64.698 32.349z" />
<glyph unicode="&#xe905;" glyph-name="confirm" d="M512 960c-281.6 0-512-230.4-512-512s230.4-512 512-512c281.6 0 512 230.4 512 512s-230.4 512-512 512zM727.040 535.040l-245.76-245.76c-20.48-20.48-51.2-20.48-71.68 0l-112.64 112.64c-20.48 20.48-20.48 51.2 0 71.68s51.2 20.48 71.68 0l76.8-76.8 209.92 209.92c20.48 20.48 51.2 20.48 71.68 0s20.48-51.2 0-71.68z" />
<glyph unicode="&#xe906;" glyph-name="calendar" horiz-adv-x="939" d="M203.591 952.891c31.419 0 56.889-25.47 56.889-56.889v-19.911h407.975v19.911c0 31.419 25.468 56.889 56.887 56.889s56.892-25.47 56.892-56.889v-32.199c89.37-30.697 153.6-115.482 153.6-215.268v-477.873c0-125.675-101.884-227.554-227.558-227.554h-477.865c-125.676 0-227.556 101.879-227.556 227.554v477.873c0 96.118 59.593 178.317 143.847 211.665v35.802c0 31.419 25.47 56.889 56.889 56.889zM230.41 762.313c-62.838 0-113.778-50.94-113.778-113.778v-477.873c0-62.835 50.94-113.775 113.778-113.775h477.865c62.839 0 113.779 50.94 113.779 113.775v477.873c0 62.838-50.94 113.778-113.779 113.778h-477.865zM178.397 640.002c0 31.419 25.47 56.889 56.889 56.889h464.456c31.42 0 56.892-25.47 56.892-56.889s-25.472-56.889-56.892-56.889h-464.456c-31.419 0-56.889 25.47-56.889 56.889z" />
<glyph unicode="&#xe907;" glyph-name="edit" d="M756.262 913.359c36.638 36.66 96.055 36.685 132.727 0.056l88.337-88.238c36.685-36.644 36.71-96.092 0.055-132.767l-417.011-417.239c-13.073-13.082-29.717-22.007-47.851-25.66l-186.281-37.538c-14.010-2.82-28.503 1.557-38.606 11.665-10.103 10.112-14.474 24.606-11.642 38.613l37.602 186.065c3.657 18.091 12.566 34.705 25.615 47.761l417.054 417.282zM828.685 853.041c-3.332 3.33-8.734 3.328-12.066-0.005l-417.054-417.281c-1.186-1.19-1.996-2.697-2.328-4.343l-24.877-123.098 123.308 24.849c1.647 0.329 3.162 1.143 4.348 2.33l417.011 417.241c3.332 3.334 3.332 8.738-0.004 12.070l-88.337 88.238zM215.412 774.333c-61.267 0-110.933-49.666-110.933-110.933v-512.006c0-61.265 49.667-110.933 110.933-110.933h511.999c61.269 0 110.933 49.668 110.933 110.933v256.004c0 23.565 19.102 42.667 42.667 42.667s42.667-19.102 42.667-42.667v-256.004c0-108.395-87.872-196.267-196.267-196.267h-511.999c-108.395 0-196.267 87.872-196.267 196.267v512.006c0 108.395 87.872 196.267 196.267 196.267h255.999c23.565 0 42.667-19.102 42.667-42.667s-19.102-42.667-42.667-42.667h-255.999z" />
<glyph unicode="&#xe908;" glyph-name="delete" d="M102.4 652.8h819.2v-665.6c0-13.578-5.396-26.604-14.996-36.204s-22.625-14.996-36.204-14.996h-716.8c-13.579 0-26.602 5.396-36.204 14.996s-14.996 22.625-14.996 36.204v665.6zM204.8 550.4v-512h614.4v512h-614.4zM358.4 448h102.4v-307.2h-102.4v307.2zM563.2 448h102.4v-307.2h-102.4v307.2zM256 806.4v102.4c0 13.579 5.394 26.602 14.996 36.204s22.625 14.996 36.204 14.996h409.6c13.578 0 26.604-5.394 36.204-14.996s14.996-22.625 14.996-36.204v-102.4h256v-102.4h-1024v102.4h256zM358.4 857.6v-51.2h307.2v51.2h-307.2z" />
<glyph unicode="&#xe909;" glyph-name="table-sort-down" d="M0 704l512-512 512 512h-1024z" />
<glyph unicode="&#xe90a;" glyph-name="table-sort-up" d="M0 192l512 512 512-512h-1024z" />
<glyph unicode="&#xe90b;" glyph-name="plus-icon" horiz-adv-x="1038" d="M547.561 686.935c0 15.71-12.735 28.444-28.444 28.444s-28.444-12.735-28.444-28.444h56.889zM490.672 209.068c0-15.71 12.735-28.444 28.444-28.444s28.444 12.735 28.444 28.444h-56.889zM758.050 419.557c15.71 0 28.444 12.735 28.444 28.444s-12.735 28.444-28.444 28.444v-56.889zM280.183 476.446c-15.71 0-28.444-12.735-28.444-28.444s12.735-28.444 28.444-28.444v56.889zM968.539 448.001c0-248.209-201.213-449.422-449.422-449.422v-56.889c279.627 0 506.311 226.684 506.311 506.311h-56.889zM519.117-1.421c-248.209 0-449.422 201.213-449.422 449.422h-56.889c0-279.627 226.684-506.311 506.311-506.311v56.889zM69.694 448.001c0 248.209 201.213 449.422 449.422 449.422v56.889c-279.627 0-506.311-226.684-506.311-506.311h56.889zM519.117 897.424c248.209 0 449.422-201.213 449.422-449.422h56.889c0 279.627-226.684 506.311-506.311 506.311v-56.889zM490.672 686.935v-238.933h56.889v238.933h-56.889zM490.672 448.001v-238.933h56.889v238.933h-56.889zM758.050 476.446h-238.933v-56.889h238.933v56.889zM519.117 476.446h-238.933v-56.889h238.933v56.889z" />
<glyph unicode="&#xe90c;" glyph-name="reports" horiz-adv-x="878" d="M21.933 799.088c0.001 84.831 68.77 153.599 153.6 153.599h526.638c84.835 0 153.604-68.771 153.6-153.603l-0.011-702.17c-0.004-84.831-68.773-153.596-153.6-153.596h-526.633c-84.831 0-153.6 68.769-153.599 153.6l0.005 702.17zM175.533 879.545c-44.435 0-80.457-36.022-80.457-80.457l-0.004-702.17c0-44.434 36.021-80.457 80.457-80.457h526.632c44.434 0 80.453 36.019 80.457 80.453l0.011 702.172c0.004 44.436-36.019 80.459-80.457 80.459h-526.638zM226.747 682.059c0 20.198 16.373 36.571 36.571 36.571h351.085c20.198 0 36.571-16.374 36.571-36.571s-16.373-36.571-36.571-36.571h-351.085c-20.198 0-36.571 16.373-36.571 36.571zM226.747 506.514c0 20.198 16.373 36.571 36.571 36.571h351.085c20.198 0 36.571-16.373 36.571-36.571 0-20.195-16.373-36.571-36.571-36.571h-351.085c-20.198 0-36.571 16.377-36.571 36.571zM226.747 330.975c0 20.195 16.373 36.571 36.571 36.571h175.542c20.198 0 36.571-16.377 36.571-36.571 0-20.198-16.373-36.571-36.571-36.571h-175.542c-20.198 0-36.571 16.373-36.571 36.571z" />
<glyph unicode="&#xe90d;" glyph-name="jobs" d="M870.4 729.6h-153.6v51.2c0 40.737-16.184 79.806-44.989 108.612s-67.876 44.988-108.611 44.988h-102.4c-40.737 0-79.806-16.183-108.612-44.988s-44.988-67.874-44.988-108.612v-51.2h-153.6c-40.737 0-79.806-16.183-108.612-44.988s-44.988-67.874-44.988-108.612v-460.8c0-40.735 16.183-79.805 44.988-108.611s67.874-44.989 108.612-44.989h716.8c40.735 0 79.805 16.184 108.611 44.989s44.989 67.876 44.989 108.611v460.8c0 40.737-16.184 79.806-44.989 108.612s-67.876 44.988-108.611 44.988zM409.6 780.8c0 13.579 5.394 26.602 14.996 36.204s22.625 14.996 36.204 14.996h102.4c13.578 0 26.604-5.394 36.204-14.996s14.996-22.625 14.996-36.204v-51.2h-204.8v51.2zM921.6 115.2c0-13.578-5.396-26.604-14.996-36.204s-22.625-14.996-36.204-14.996h-716.8c-13.579 0-26.602 5.396-36.204 14.996s-14.996 22.625-14.996 36.204v281.6c130.369-51.717 269.347-78.3 409.6-78.336 140.247 0.087 279.219 26.665 409.6 78.336v-281.6zM921.6 508.928c-129.106-56.718-268.585-86.006-409.6-86.006s-280.494 29.287-409.6 86.006v67.072c0 13.579 5.394 26.602 14.996 36.204s22.625 14.996 36.204 14.996h716.8c13.578 0 26.604-5.394 36.204-14.996s14.996-22.625 14.996-36.204v-67.072z" />
<glyph unicode="&#xe90e;" glyph-name="interviews" horiz-adv-x="1158" d="M0 781.913c0 98.355 79.732 178.087 178.087 178.087h801.391c98.353 0 178.087-79.732 178.087-178.087v-467.478c0-98.353-79.734-178.087-178.087-178.087h-356.174v-89.043c0-8.107-2.168-15.712-5.957-22.261h161.783c24.589 0 44.522-19.932 44.522-44.522s-19.932-44.522-44.522-44.522h-400.696c-24.588 0-44.522 19.932-44.522 44.522s19.933 44.522 44.522 44.522h161.783c-3.789 6.549-5.957 14.153-5.957 22.261v89.043h-356.174c-98.355 0-178.087 79.734-178.087 178.087v467.478zM979.478 225.391c49.179 0 89.043 39.865 89.043 89.043v467.478c0 49.177-39.865 89.043-89.043 89.043h-801.391c-49.177 0-89.043-39.866-89.043-89.043v-467.478c0-49.179 39.866-89.043 89.043-89.043h801.391z" />
<glyph unicode="&#xe90f;" glyph-name="phone" d="M250.025 793.788l-66.227-66.092c-10.848-10.826-16.363-22.665-17.681-37.943-2.408-29.441 2.818-62.355 19.967-108.177l0.034-0.090c27.994-75.487 70.452-146.476 135.245-224.419 77.827-92.698 171.318-165.683 277.712-217.092 39.723-18.957 89.003-39.245 140.591-42.539l0.085-0.004c1.681-0.115 3.721-0.124 6.865-0.124 21.786 0 36.373 6.421 49.677 20.416 7.351 8.508 23.292 24.713 36.446 37.914 7.002 7.023 13.615 13.589 18.475 18.398l3.366 3.324c1.109 3.021 2.317 6.878 3.085 10.871 1.233 6.37 0.713 9.139 0.521 9.903l-107.405 107.187c-0.35 0.35-0.687 0.704-1.020 1.067-1.382 1.51-2.867 2.726-4.087 3.426-0.183 0.107-0.341 0.188-0.474 0.252-0.26-0.111-0.623-0.282-1.097-0.546-1.719-0.973-3.742-2.573-5.756-4.587l-38.302-38.225c-0.077-0.073-0.158-0.154-0.247-0.243-4.361-4.369-22.537-22.558-52.058-22.558-12.041 0-23.155 3.012-33.634 8.239-1.114 0.559-2.022 1.079-2.611 1.429-0.384 0.226-0.742 0.448-0.977 0.593-0.444 0.247-0.883 0.503-1.318 0.772-4.173 2.586-9.404 5.227-16.781 8.905l-0.482 0.243c-7.543 3.763-16.973 8.465-26.359 14.409-65.805 41.527-124.975 95.394-180.558 163.571-0.407 0.457-0.8 0.93-1.18 1.408-30.913 39.172-52.24 73.31-67.564 110.36-0.285 0.688-0.546 1.387-0.782 2.093l-0.747 2.237c-2.23 7.047-5.472 19.067-3.814 33.355 1.697 14.635 8.191 28.996 20.541 41.849 1.611 1.853 2.983 3.028 3.549 3.511l0.091 0.077c4.351 3.892 7.046 6.219 8.907 7.765 0.813 0.675 1.457 1.193 1.999 1.62 0.096 0.096 0.205 0.207 0.329 0.333 0.62 0.631 1.375 1.405 2.404 2.46 1.264 1.296 2.942 3.016 5.296 5.421 0.218 0.223 0.44 0.443 0.666 0.66 3.517 3.389 6.747 6.651 10.278 10.217 1.921 1.94 3.931 3.97 6.125 6.159 3.985 3.977 5.45 6.46 5.958 7.575-0.508 1.115-1.973 3.599-5.958 7.575l-53.693 53.583c-3.016 3.104-6.042 6.176-9.146 9.323l-0.037 0.037c-3.088 3.13-6.255 6.341-9.389 9.569-11.859 12.222-22.734 23.252-34.035 33.791-0.264 0.247-0.524 0.497-0.78 0.753l-0.586 0.585c-1.713 1.71-3.372 2.99-4.747 3.743-0.606 0.331-0.994 0.474-1.192 0.532-0.627-0.14-3.17-0.907-7.486-4.874zM881.634 159.104l28.8-13.952c-1.6-3.302-3.755-6.306-6.374-8.879l-2.112-2.078-5.717-5.645c-4.787-4.74-11.294-11.2-18.163-18.095-14.238-14.281-28.565-28.949-33.613-34.88-0.333-0.393-0.67-0.772-1.020-1.143-26.052-27.797-57.886-41.122-96.819-41.122h-0.337c-2.714-0.004-6.737-0.004-10.735 0.26-64.431 4.122-122.961 29.043-164.113 48.683l-0.137 0.068c-114.752 55.437-215.452 134.131-299.001 233.66l-0.098 0.115c-68.432 82.313-115.058 159.492-146.068 243.094-19.172 51.239-27.232 93.96-23.791 135.861l0.009 0.111c2.597 30.327 14.668 56.303 36.244 77.835l66.631 66.496c0.239 0.238 0.48 0.472 0.726 0.702 13.242 12.406 30.843 22.493 51.579 22.493 25.127 0 42.881-14.765 51.133-22.999l0.208-0.207c12.386-11.571 24.057-23.431 35.907-35.645 2.924-3.012 5.911-6.041 9.028-9.2l0.106-0.107c2.999-3.040 6.115-6.199 9.245-9.419l53.172-53.063c13.397-13.368 24.93-30.992 24.93-52.876s-11.533-39.508-24.93-52.876c-1.618-1.615-3.345-3.358-5.138-5.168-3.755-3.79-7.796-7.869-11.721-11.661-1.973-2.017-3.572-3.655-4.835-4.95-1.138-1.167-2.004-2.054-2.626-2.687l-0.127-0.129c-1.169-1.19-2.765-2.816-4.727-4.423-0.441-0.361-0.817-0.655-1.018-0.811l-0.407-0.316c-0.122-0.095-0.354-0.277-0.813-0.659-0.957-0.795-2.859-2.42-6.577-5.739-0.103-0.106-0.207-0.211-0.312-0.315-1.977-1.973-2.783-3.34-3.101-3.983-0.303-0.612-0.381-1-0.417-1.307-0.099-0.858-0.028-2.54 1.194-6.454l0.134-0.401c12.297-29.424 29.777-57.985 57.532-93.262 0.209-0.243 0.414-0.486 0.614-0.73 52.075-64.021 106.402-113.229 165.769-150.694 6.43-4.066 13.239-7.497 21.244-11.494l0.644-0.32c6.298-3.14 13.713-6.839 20.429-10.931 0.341-0.192 0.64-0.363 0.883-0.508 0.188-0.111 0.371-0.222 0.533-0.324 2.283-1.037 3.486-1.122 4.258-1.122 1.161 0 2.18 0.307 3.383 1.020 1.365 0.806 2.398 1.775 3.712 3.085l38.302 38.221c8.081 8.068 26.539 23.974 52.109 23.974 24.866 0 42.56-14.767 51.2-24.043l107.486-107.264c0.021-0.021 0.043-0.043 0.064-0.064 22.182-21.982 19.358-51.989 16.508-66.743-1.664-8.627-4.122-16.158-6.084-21.431-0.998-2.679-1.916-4.894-2.615-6.502-0.354-0.811-0.653-1.472-0.883-1.98l-0.299-0.636-0.107-0.226-0.047-0.090-0.034-0.077c-0.004-0.009 0 0-28.8 13.952z" />
<glyph unicode="&#xe910;" glyph-name="email" d="M70.396 652.798c0 74.227 60.173 134.4 134.4 134.4h614.4c74.227 0 134.4-60.173 134.4-134.4v-409.598c0-74.227-60.173-134.4-134.4-134.4h-614.4c-74.227 0-134.4 60.173-134.4 134.4v409.598zM204.796 723.198c-38.881 0-70.4-31.519-70.4-70.4v-409.598c0-38.882 31.519-70.4 70.4-70.4h614.4c38.882 0 70.4 31.518 70.4 70.4v409.598c0 38.881-31.518 70.4-70.4 70.4h-614.4zM152.886 696.613c10.060 14.531 29.994 18.155 44.525 8.096l303.658-210.223c6.575-4.553 15.279-4.553 21.854 0l303.659 210.223c14.532 10.060 34.466 6.435 44.523-8.096 10.061-14.531 6.438-34.465-8.094-44.525l-303.654-210.223c-28.493-19.725-66.227-19.725-94.72 0l-303.655 210.223c-14.531 10.060-18.155 29.994-8.095 44.525z" />
<glyph unicode="&#xe911;" glyph-name="master-data" horiz-adv-x="945" d="M421.557 954.571c12.32 7.239 27.589 7.239 39.908 0l402.125-236.308c12.040-7.074 19.432-19.993 19.432-33.956v-236.308c0-21.752-17.632-39.385-39.385-39.385s-39.385 17.632-39.385 39.385v163.057l-323.36-213.773v-353.075l27.699 16.278c18.751 11.020 42.89 4.75 53.91-14.001 11.020-18.755 4.75-42.89-14.001-53.91l-87.036-51.149c-12.32-7.235-27.589-7.235-39.908 0l-402.126 236.308c-12.038 7.077-19.431 19.996-19.431 33.957v472.615c0 13.963 7.393 26.882 19.431 33.956l191.67 112.634c4.496 4.317 9.881 7.422 15.655 9.2l194.801 114.474zM238.721 755.765l-134.936-79.294 337.149-211.177 127.24 84.118-329.453 206.354zM640.142 596.99c-1.138 0.903-2.339 1.752-3.6 2.541l-321.26 201.225 126.227 74.178 327.739-192.593-129.107-85.351zM402.125 396.658l-323.356 202.537v-364.967l323.356-190.019v352.449zM933.447 298.862c15.518-15.242 15.738-40.18 0.492-55.694l-174.123-177.231c-7.408-7.538-17.53-11.784-28.097-11.784-10.563 0-20.689 4.246-28.093 11.784l-58.041 59.077c-15.246 15.514-15.025 40.452 0.492 55.694 15.514 15.246 40.452 15.025 55.694-0.492l29.948-30.48 146.034 148.634c15.242 15.518 40.18 15.738 55.694 0.492z" />
<glyph unicode="&#xe912;" glyph-name="users" horiz-adv-x="1317" d="M513.161 862.476c-69.364 0-125.387-56.058-125.387-124.952s56.023-124.952 125.387-124.952c69.364 0 125.386 56.058 125.386 124.952s-56.023 124.952-125.386 124.952zM290.249 737.524c0 122.985 99.916 222.476 222.911 222.476 122.997 0 222.91-99.491 222.91-222.476s-99.913-222.476-222.91-222.476c-122.995 0-222.911 99.491-222.911 222.476zM844.624 912.369c13.458 23.326 43.276 31.324 66.604 17.864 66.487-38.366 111.465-110.24 111.465-192.709s-44.978-154.343-111.465-192.709c-23.328-13.459-53.146-5.461-66.604 17.864-13.463 23.326-5.461 53.146 17.861 66.606 37.62 21.706 62.683 62.11 62.683 108.239s-25.064 86.533-62.683 108.239c-23.323 13.46-31.325 43.28-17.861 66.606zM134.185 309.058c88.176 68.252 215.937 106.823 378.975 106.823 163.040 0 290.801-38.571 378.978-106.823 89.264-69.096 134.183-165.908 134.183-271.813 0-51.078-38.434-101.244-96.11-101.244h-834.099c-57.679 0-96.113 50.166-96.113 101.244 0 105.906 44.919 202.718 134.185 271.813zM193.879 231.941c-64.98-50.298-96.355-118.423-96.355-194.697 0-1.76 0.43-2.984 0.823-3.721h829.626c0.395 0.736 0.824 1.96 0.824 3.721 0 76.273-31.373 144.399-96.354 194.697-66.072 51.137-170.511 86.416-319.283 86.416s-253.211-35.279-319.281-86.416zM1076.331 370.376c16.091 21.597 46.646 26.053 68.237 9.962 48.816-36.386 91.146-96.656 120.959-157.14 29.798-60.436 51.044-129.107 51.044-185.954 0-51.078-38.434-101.244-96.115-101.244h-28.838c-26.931 0-48.762 21.831-48.762 48.762s21.831 48.762 48.762 48.762h26.604c0.395 0.736 0.824 1.96 0.824 3.721 0 36.186-14.711 89.527-40.989 142.833-26.258 53.263-60.119 98.475-91.77 122.061-21.592 16.096-26.049 46.646-9.957 68.237z" />
<glyph unicode="&#xe913;" glyph-name="dashboard" horiz-adv-x="1170" d="M581.081 850.286c-95.257 0-188.16-29.672-265.837-84.913s-136.285-133.321-167.687-223.427c-31.402-90.103-34.040-187.764-7.546-279.441 24.948-86.323 74.56-163.308 142.542-221.569h597.054c67.984 58.261 117.594 135.246 142.541 221.569 26.497 91.677 23.859 189.338-7.543 279.441-31.403 90.105-90.010 168.185-167.687 223.427s-170.584 84.913-265.835 84.913zM258.723 844.848c94.176 66.976 206.833 102.962 322.358 102.962 115.522 0 228.176-35.986 322.355-102.962 94.174-66.975 165.205-161.619 203.259-270.808 38.049-109.188 41.248-227.524 9.143-338.608-32.105-111.089-97.919-209.437-188.343-281.41-8.631-6.871-19.334-10.611-30.369-10.611h-632.096c-11.031 0-21.737 3.74-30.367 10.611-90.422 71.973-156.239 170.32-188.342 281.41-32.104 111.084-28.908 229.42 9.145 338.608s109.082 203.833 203.258 270.808zM855.445 631.098c18.968-19.121 18.842-49.994-0.278-68.96l-101.591-100.763c-0.229-0.229-0.463-0.458-0.697-0.683 9.679-19.744 15.121-41.945 15.121-65.463 0-82.954-67.691-149.528-150.352-149.528-82.656 0-150.347 66.575-150.347 149.528s67.691 149.524 150.347 149.524c23.708 0 46.178-5.474 66.18-15.24 0.351 0.371 0.707 0.737 1.073 1.1l101.586 100.764c19.12 18.965 49.996 18.84 68.959-0.28zM617.648 447.23c-29.55 0-52.824-23.654-52.824-52 0-28.35 23.274-52.005 52.824-52.005s52.829 23.654 52.829 52.005c0 28.345-23.279 52-52.829 52z" />
<glyph unicode="&#xe914;" glyph-name="notification" horiz-adv-x="931" d="M465.459 848.296c-166.584 0-304.658-140.87-304.658-318.453v-0.548h-0.003l-1.275-108.234c-0.064-74.328-25.317-137.202-54.407-183.775h721.043c-27.941 46.68-52.145 109.68-52.145 184.059v0.577h0.005l1.275 102.826c-0.144 180.42-140.479 323.549-309.834 323.549zM67.71 530.124c0.147 225.456 176.497 411.262 397.749 411.262 224.205 0 402.925-188.368 402.925-416.921v-0.577h-0.005l-1.275-102.825c0.074-63.265 24.381-116.527 50.176-153.33 17.692-25.232 15.914-55.305 7.284-76.367-8.55-20.876-30.455-47.174-66.728-47.174h-784.705c-36.869 0-58.736 27.103-67.071 48.086-8.428 21.215-10.049 51.782 8.44 77.079v0c26.965 36.892 51.93 89.656 51.93 151.985v0.549h0.003l1.275 108.232zM288.721 74.408c15.521 20.489 44.715 24.52 65.207 8.997 28.684-21.723 67.672-35.691 111.532-35.691 43.864 0 82.851 13.968 111.532 35.691 20.494 15.523 49.687 11.492 65.21-8.997 15.518-20.494 11.492-49.687-9.002-65.206-45.428-34.411-104.313-54.579-167.741-54.579s-122.309 20.168-167.739 54.579c-20.492 15.518-24.521 44.712-9 65.206z" />
<glyph unicode="&#xe915;" glyph-name="add" horiz-adv-x="964" d="M803.099 407.853h-281.099v-281.1h-80.314v281.1h-281.098v80.314h281.098v281.098h80.314v-281.098h281.099v-80.314z" />
<glyph unicode="&#xe916;" glyph-name="link" d="M725.333 234.667h213.333v-85.333h-128v-128h-85.333v213.333zM298.667 661.333h-213.333v85.333h128v128h85.333v-213.333zM783.531 297.131l-60.331 60.416 60.331 60.331c19.951 19.78 35.802 43.302 46.639 69.222 10.833 25.92 16.444 53.725 16.508 81.819 0.060 28.094-5.427 55.924-16.149 81.891s-26.47 49.561-46.336 69.426c-19.866 19.865-43.46 35.611-69.427 46.334s-53.794 16.211-81.89 16.149c-28.092-0.061-55.898-5.671-81.818-16.508s-49.442-26.685-69.222-46.638l-60.331-60.373-60.373 60.331 60.416 60.331c56.013 56.014 131.985 87.482 211.2 87.482s155.187-31.468 211.2-87.482c56.013-56.014 87.484-131.985 87.484-211.2s-31.471-155.187-87.484-211.2l-60.416-60.331zM662.869 176.469l-60.373-60.331c-56.013-56.013-131.985-87.484-211.2-87.484s-155.186 31.471-211.2 87.484c-56.014 56.013-87.482 131.985-87.482 211.2s31.468 155.187 87.482 211.2l60.373 60.331 60.331-60.416-60.331-60.331c-19.952-19.78-35.802-43.302-46.638-69.222s-16.446-53.726-16.508-81.818c-0.061-28.096 5.426-55.923 16.149-81.89s26.469-49.562 46.334-69.427c19.866-19.866 43.459-35.614 69.426-46.336s53.796-16.209 81.891-16.149c28.094 0.064 55.899 5.675 81.819 16.508 25.92 10.837 49.442 26.688 69.222 46.639l60.331 60.331 60.373-60.288zM632.661 629.035l60.373-60.373-301.696-301.653-60.373 60.331 301.696 301.696z" />
<glyph unicode="&#xe917;" glyph-name="user-default-profile" horiz-adv-x="832" d="M200 736c0 119.293 96.707 216 216 216s216-96.707 216-216c0-119.293-96.707-216-216-216s-216 96.707-216 216zM262.4 376h-2.694c-33.114 0.003-52.686 0.003-69.495-2.659-92.425-14.64-164.912-87.126-179.551-179.552-2.662-16.81-2.661-36.381-2.659-69.494v-5.132c-0.003-21.45-0.004-35.098 1.872-46.941 10.301-65.040 61.311-116.048 126.351-126.349 11.842-1.875 25.487-1.875 46.934-1.872h465.688c21.446-0.003 35.091-0.003 46.934 1.872 65.040 10.301 116.048 61.309 126.349 126.349 1.875 11.843 1.875 25.491 1.872 46.941v0 5.133c0.003 33.114 0.003 52.685-2.659 69.494-14.64 92.426-87.126 164.912-179.552 179.552-16.81 2.662-36.381 2.662-69.494 2.659v0h-309.894z" />
<glyph unicode="&#xe918;" glyph-name="pending" horiz-adv-x="819" d="M747.53 79.36h-30.72c-6.144 153.6-36.864 270.336-202.752 368.64 159.744 98.303 196.608 215.039 202.752 368.639h30.72c36.864 0 61.44 24.576 61.44 61.44s-24.576 61.44-61.44 61.44h-675.84c-36.864 0-61.44-24.576-61.44-61.44s24.576-61.44 61.44-61.44h30.72c6.144-153.6 36.864-270.336 202.752-368.639-159.744-98.304-196.608-215.040-202.752-368.64h-30.72c-36.864 0-61.44-24.576-61.44-61.44s24.576-61.44 61.44-61.44h675.84c36.864 0 61.44 24.576 61.44 61.44s-24.576 61.44-61.44 61.44z" />
<glyph unicode="&#xe919;" glyph-name="video-join" horiz-adv-x="1570" d="M268.133-60.532h627c146.405 0 233.998 85.197 233.998 231.601v523.797c0 145.8-87.593 231-233.998 231h-627c-139.8 0-234-85.2-234-231v-523.797c0-146.405 87.6-231.601 234-231.601zM284.933 30.065c-98.4 0-154.2 51.002-154.2 154.801v495.6c0 104.4 55.8 155.4 154.2 155.4h593.399c97.799 0 154.201-51 154.201-155.4v-495.6c0-103.799-56.402-154.801-154.201-154.801h-593.399zM1115.334 600.667v-114l285.6 235.799c5.4 4.2 8.998 7.201 14.404 7.201 7.195 0 10.199-6 10.199-14.4v-565.196c0-8.404-3.004-13.804-10.199-13.804-5.407 0-9.004 2.997-14.404 6.595l-285.6 235.805v-113.396l240.599-204.001c24.003-19.797 50.401-33.601 74.998-33.601 52.804 0 87.607 39.001 87.607 94.802v620.397c0 55.8-34.802 94.8-87.607 94.8-24.596 0-50.995-13.8-74.998-33.6l-240.599-203.4z" />
<glyph unicode="&#xe91a;" glyph-name="arrow" horiz-adv-x="1152" d="M51.188 448.005c0 35.346 28.654 64 64 64h770.118l-278.406 286.358c-24.639 25.343-24.068 65.862 1.275 90.5s65.86 24.069 90.5-1.274l384-394.972c24.147-24.84 24.147-64.387 0-89.226l-384-394.97c-24.64-25.344-65.158-25.914-90.5-1.274-25.343 24.634-25.914 65.152-1.275 90.496l278.406 286.36h-770.118c-35.346 0-64 28.653-64 64z" />
<glyph unicode="&#xe91b;" glyph-name="url" d="M512-35.891c139.543 0 253.491 206.303 253.491 482.886 0 278.087-113.441 484.394-253.491 484.394-140.046 0-253.489-206.306-253.489-484.394 0-276.582 113.945-482.886 253.489-482.886zM512 870.651c98.388 0 186.228-195.765 186.228-423.656 0-223.874-87.841-421.646-186.228-421.646-98.384 0-186.227 197.772-186.227 421.646 0 227.891 87.843 423.656 186.227 423.656zM479.372 924.361v-950.715h65.759v950.715h-65.759zM512 259.258c-154.603 0-291.639-40.657-361.913-105.407l50.698-41.667c66.259 52.708 174.181 81.32 311.215 81.32s244.959-28.611 311.222-81.32l50.693 41.667c-70.274 64.749-207.309 105.407-361.914 105.407zM975.309 481.126h-926.619v-65.755h926.619v65.755zM512 634.227c154.605 0 291.64 40.659 361.914 105.412l-50.693 41.662c-66.262-52.204-174.187-81.317-311.222-81.317s-244.956 29.114-311.215 81.317l-50.698-41.662c70.274-64.753 207.31-105.412 361.913-105.412zM512-64c280.097 0 512 232.406 512 512 0 280.094-232.406 512-512.503 512-279.591 0-511.497-231.906-511.497-512 0-279.594 232.408-512 512-512zM512 4.264c-242.446 0-443.733 201.286-443.733 443.736 0 242.446 200.785 443.733 443.23 443.733 242.451 0 444.239-201.287 444.239-443.733 0-242.451-201.286-443.736-443.736-443.736z" />
<glyph unicode="&#xe91c;" glyph-name="filter-close" d="M529.087 230.679c16.458-19.749 45.81-22.416 65.555-5.958 19.749 16.454 22.416 45.805 5.962 65.555l-71.517-59.597zM400.282 457.956l-35.757 29.794c-14.384-17.259-14.384-42.333 0-59.592l35.757 29.798zM600.604 625.634c16.454 19.748 13.787 49.098-5.962 65.555-19.745 16.457-49.096 13.789-65.555-5.959l71.517-59.595zM600.604 290.276l-164.565 197.474-71.515-59.592 164.562-197.478 71.517 59.597zM436.039 428.158l164.565 197.476-71.517 59.595-164.562-197.479 71.515-59.592zM512.019 848.296c221.072 0 400.291-179.216 400.291-400.291h93.091c0 272.487-220.895 493.382-493.382 493.382v-93.091zM912.31 448.005c0-221.072-179.219-400.291-400.291-400.291v-93.091c272.486 0 493.382 220.895 493.382 493.382h-93.091zM512.019 47.714c-221.075 0-400.291 179.214-400.291 400.291h-93.091c0-272.486 220.894-493.382 493.382-493.382v93.091zM111.727 448.005c0 221.075 179.216 400.291 400.291 400.291v93.091c-272.488 0-493.382-220.894-493.382-493.382h93.091z" />
<glyph unicode="&#xe91d;" d="M1024 960h-1024v-1024h1024v1024z" />
<glyph unicode="&#xe91e;" d="M497.73 888.988c9.155 3.662 19.369 3.662 28.524 0l413.251-165.302c0.005-0.001 0.005-0.001 0.005-0.002 22.676-9.070 37.55-31.034 37.55-55.459v-604.225c0-32.988-26.747-59.73-59.735-59.73h-810.666c-32.989 0-59.733 26.742-59.733 59.73v604.225c0 24.423 14.868 46.389 37.549 55.459 0.002 0.001 0.004 0.002 0.005 0.002l413.251 165.301zM511.992 811.976l-388.267-155.308v-575.599h776.535v575.599l-388.268 155.308z" />
<glyph unicode="&#xe91f;" d="M224 490.665c0 17.673 14.327 32 32 32h128.098c11.531 0 22.17-6.203 27.849-16.239s5.52-22.35-0.416-32.235l-98.99-164.847h71.556c17.673 0 32-14.326 32-32 0-17.669-14.327-32-32-32h-128.098c-11.531 0-22.17 6.205-27.849 16.241s-5.521 22.349 0.416 32.236l98.989 164.844h-71.556c-17.673 0-32 14.327-32 32zM512 522.665c17.674 0 32-14.327 32-32v-213.336c0-17.669-14.326-32-32-32s-32 14.331-32 32v213.336c0 17.673 14.327 32 32 32zM672 458.665v-21.336c0-6.564 8.617-21.33 32-21.33s32 14.766 32 21.33c0 6.569-8.617 21.336-32 21.336h-32zM608 490.665c0 17.673 14.326 32 32 32 1.029 0 2.048-0.049 3.052-0.144 1.106 0.095 2.222 0.144 3.348 0.144h57.6c47.309 0 96-32.99 96-85.336 0-52.342-48.691-85.33-96-85.33-10.793 0-21.658 1.715-32 4.987v-79.657c0-17.669-14.326-32-32-32s-32 14.331-32 32v213.336z" />
<glyph unicode="&#xe920;" glyph-name="employer-name" horiz-adv-x="951" d="M445.668 935.643c-156.186 0-283.607-121.881-283.607-271.277 0-92.195 49.024-173.772 122.802-222.834-166.315-62.084-284.863-254.235-284.863-434.364h74.278c0 170.437 136.037 350.036 305.553 379.876l25.322-71.462h81.031l25.322 71.462c169.516-29.84 305.551-209.439 305.551-379.876h74.277c0 180.129-118.543 372.28-284.86 434.364 73.738 49.062 122.802 130.639 122.802 222.834 0 149.396-127.421 271.277-283.608 271.277zM445.668 858.135c112.35 0 202.577-86.305 202.577-193.769s-90.228-193.769-202.577-193.769c-112.349 0-202.576 86.305-202.576 193.769s90.228 193.769 202.576 193.769zM405.153 276.828l-40.515-232.526h162.062l-40.515 232.526h-81.031z" />
<glyph unicode="&#xe921;" horiz-adv-x="814" d="M726.974-47.999h-640c-44.112 0-80 35.887-80 79.998v832.001c0 44.112 35.888 80 80 80h325.495c21.367 0 41.464-8.328 56.562-23.432l314.51-314.512c15.113-15.111 23.434-35.191 23.434-56.559v-517.498c0-44.111-35.89-79.998-80.001-79.998zM86.974 912c-26.472 0-48-21.528-48-48v-832.001c0-26.472 21.528-47.999 48-47.999h640c26.472 0 47.999 21.528 47.999 47.999v517.498c0 12.632-5.128 24.999-14.055 33.936l-314.512 314.511c-9.064 9.064-21.121 14.056-33.936 14.056h-325.495z" />
<glyph unicode="&#xe922;" horiz-adv-x="814" d="M656.654 317.44c-0.559 4.080-3.841 9.2-7.36 12.64-10.080 9.92-32.24 15.121-66.001 15.599-22.88 0.242-50.399-1.759-79.36-5.839-12.96 7.441-26.319 15.602-36.801 25.44-28.239 26.322-51.759 62.881-66.479 103.122 0.961 3.76 1.759 7.039 2.56 10.398 0 0 15.84 90.241 11.679 120.8-0.559 4.162-0.958 5.362-2.080 8.641l-1.36 3.521c-4.319 9.998-12.8 20.559-26.080 20l-7.998 0.239c-14.882 0-26.881-7.599-30.082-18.881-9.599-35.52 0.32-88.718 18.322-157.517l-4.642-11.201c-12.879-31.521-29.040-63.199-43.278-91.12l-1.841-3.6c-15.040-29.36-28.64-54.319-41.039-75.44l-12.721-6.719c-0.96-0.48-22.8-12.081-27.92-15.121-43.44-25.999-72.24-55.44-77.040-78.801-1.52-7.52-0.4-17.040 7.36-21.438l12.32-6.241c5.36-2.639 11.040-3.999 16.8-3.999 30.96 0 66.88 38.56 116.4 124.96 57.121 18.561 122.239 34.078 179.279 42.559 43.441-24.4 96.881-41.44 130.641-41.44 6 0 11.198 0.562 15.36 1.68 6.48 1.759 11.92 5.44 15.279 10.4 6.561 9.841 7.84 23.439 6.081 37.36zM186.894 165.36c5.6 15.439 28 45.999 61.040 73.040 2.080 1.68 7.2 6.48 11.84 10.959-34.56-55.12-57.68-77.039-72.88-84zM382.574 615.999c9.92 0 15.599-25.038 16.079-48.559s-5.039-40.002-11.839-52.24c-5.679 18.080-8.399 46.56-8.399 65.2 0 0-0.402 35.598 4.159 35.598zM324.175 294.88c6.961 12.398 14.16 25.519 21.52 39.358 17.999 34.002 29.36 60.56 37.759 82.4 16.801-30.56 37.759-56.559 62.32-77.359 3.122-2.56 6.401-5.199 9.762-7.84-50-9.841-93.281-21.919-131.361-36.559zM639.614 297.679c-3.040-1.841-11.76-2.959-17.361-2.959-18.080 0-40.558 8.239-71.998 21.759 12.078 0.882 23.198 1.36 33.12 1.36 18.159 0 23.518 0.081 41.359-4.479 17.76-4.561 17.999-13.761 14.88-15.68z" />
<glyph unicode="&#xe923;" glyph-name="icon-active-status" d="M1024 448c0-282.77-229.23-512-512-512s-512 229.23-512 512c0 282.77 229.23 512 512 512s512-229.23 512-512z" />
<glyph unicode="&#xe924;" glyph-name="close" d="M512.054 553.65l369.6 369.6 105.578-105.578-369.6-369.6 369.6-369.6-105.578-105.58-369.6 369.6-369.6-369.6-105.579 105.58 369.601 369.6-369.601 369.6 105.579 105.578 369.6-369.6z" />
<glyph unicode="&#xe925;" glyph-name="info" d="M512.009 838.981c-215.934 0-390.982-175.049-390.982-390.981s175.048-390.982 390.982-390.982c215.934 0 390.982 175.048 390.982 390.982s-175.048 390.981-390.982 390.981zM9.318 448c0 277.628 225.062 502.69 502.691 502.69s502.691-225.063 502.691-502.69c0-277.63-225.061-502.691-502.691-502.691s-502.691 225.061-502.691 502.691zM512.009 671.418c30.846 0 55.855-25.007 55.855-55.855v-1.964c0-30.848-25.009-55.855-55.855-55.855s-55.855 25.007-55.855 55.855v1.964c0 30.848 25.009 55.855 55.855 55.855zM512.009 503.854c30.846 0 55.855-25.008 55.855-55.854v-223.418c0-30.85-25.009-55.855-55.855-55.855s-55.855 25.004-55.855 55.855v223.418c0 30.846 25.009 55.854 55.855 55.854z" />
<glyph unicode="&#xe926;" glyph-name="chevron" horiz-adv-x="683" d="M76.202 917.939c33.325 33.325 87.355 33.325 120.679 0l409.6-409.6c33.325-33.324 33.325-87.354 0-120.679l-409.6-409.598c-33.324-33.323-87.354-33.323-120.679 0s-33.325 87.356 0 120.678l349.26 349.26-349.26 349.26c-33.325 33.325-33.325 87.355 0 120.68z" />
<glyph unicode="&#xe927;" glyph-name="slot" d="M224 960c8.487 0 16.626-3.371 22.627-9.373s9.373-14.141 9.373-22.627v-32h512v32c0 8.487 3.371 16.626 9.374 22.627 5.999 6.001 14.14 9.373 22.626 9.373s16.627-3.371 22.626-9.373c6.003-6.001 9.374-14.141 9.374-22.627v-32h64c33.946 0 66.505-13.486 90.509-37.49s37.491-56.562 37.491-90.51v-704c0-33.946-13.487-66.505-37.491-90.509s-56.563-37.491-90.509-37.491h-768c-33.948 0-66.505 13.487-90.51 37.491s-37.49 56.563-37.49 90.509v704c0 33.948 13.486 66.505 37.49 90.51s56.562 37.49 90.51 37.49h64v32c0 8.487 3.372 16.626 9.373 22.627s14.141 9.373 22.627 9.373v0zM128 832c-16.974 0-33.253-6.743-45.255-18.745s-18.745-28.281-18.745-45.255v-64h896v64c0 16.974-6.741 33.253-18.743 45.255s-28.284 18.745-45.257 18.745h-768zM960 640h-896v-576c0-16.973 6.743-33.254 18.745-45.257s28.281-18.743 45.255-18.743h768c16.973 0 33.254 6.741 45.257 18.743s18.743 28.284 18.743 45.257v576zM576 480c0 8.486 3.371 16.627 9.374 22.626 5.999 6.003 14.14 9.374 22.626 9.374h352v-128h-352c-8.486 0-16.627 3.371-22.626 9.374-6.003 5.999-9.374 14.14-9.374 22.626v64zM448 288v-64c0-8.486-3.371-16.627-9.374-22.626-5.999-6.003-14.139-9.374-22.626-9.374h-352v128h352c8.487 0 16.627-3.371 22.626-9.374 6.003-5.999 9.374-14.14 9.374-22.626z" />
<glyph unicode="&#xe928;" glyph-name="add-person" d="M56.883-4.806c-0.002-18.855 15.278-34.14 34.13-34.14s34.135 15.278 34.137 34.127l-68.267 0.014zM91.035 159.048v0zM555.23 288.733c18.851 0 34.133 15.282 34.133 34.133s-15.282 34.133-34.133 34.133v-68.267zM964.833 234.121c18.848 0 34.133 15.285 34.133 34.133 0 18.851-15.285 34.133-34.133 34.133v-68.266zM719.073 302.387c-18.855 0-34.133-15.281-34.133-34.133 0-18.848 15.278-34.133 34.133-34.133v68.266zM807.82 145.381c0-18.855 15.278-34.133 34.133-34.133 18.848 0 34.133 15.278 34.133 34.133h-68.267zM876.087 391.14c0 18.851-15.285 34.133-34.133 34.133-18.855 0-34.133-15.282-34.133-34.133h68.267zM790.371 898.775c-16.445 9.218-37.246 3.359-46.462-13.085s-3.359-37.247 13.087-46.464l33.376 59.549zM756.995 571.095c-16.445-9.218-22.303-30.021-13.087-46.465s30.017-22.302 46.462-13.085l-33.376 59.55zM603.017 705.16c0-71.635-58.072-129.707-129.707-129.707v-68.267c109.338 0 197.973 88.636 197.973 197.973h-68.267zM473.31 575.453c-71.635 0-129.707 58.072-129.707 129.707h-68.267c0-109.337 88.635-197.973 197.973-197.973v68.267zM343.603 705.16c0 71.635 58.072 129.707 129.707 129.707v68.267c-109.338 0-197.973-88.636-197.973-197.973h68.267zM473.31 834.867c71.635 0 129.707-58.072 129.707-129.707h68.267c0 109.338-88.635 197.973-197.973 197.973v-68.267zM125.15-4.82l0.018 163.86-68.267 0.007-0.018-163.854 68.267-0.014zM254.875 357c-109.329 0-197.961-88.623-197.973-197.952l68.267-0.007c0.008 71.632 58.077 129.692 129.707 129.692v68.267zM254.875 288.733h300.355v68.267h-300.355v-68.267zM964.833 302.387h-122.88v-68.266h122.88v68.266zM841.953 302.387h-122.88v-68.266h122.88v68.266zM876.087 145.381v122.873h-68.267v-122.873h68.267zM876.087 268.254v122.886h-68.267v-122.886h68.267zM756.995 839.225c58.812-32.967 91.785-82.659 91.785-134.065h68.267c0 82.863-52.934 152.282-126.676 193.615l-33.376-59.549zM848.78 705.16c0-51.406-32.973-101.098-91.785-134.065l33.376-59.55c73.742 41.333 126.676 110.752 126.676 193.615h-68.267z" />
<glyph unicode="&#xe929;" glyph-name="folder" horiz-adv-x="1252" d="M22.75 822.269c0 62.838 50.94 113.778 113.778 113.778h321.961c30.176 0 59.116-11.987 80.453-33.325l81.653-81.65h379.443c62.839 0 113.778-50.941 113.778-113.778v-118.050c66.253-12.124 109.397-80.995 87.097-147.88l-134.537-403.612c-15.485-46.461-58.965-77.796-107.935-77.796h-821.914c-62.838 0-113.778 50.938-113.778 113.778v748.535zM195.534 73.734c0.77 9.847 2.921 19.558 6.4 28.831l155.522 414.728c16.653 44.407 59.106 73.828 106.534 73.828h536.049v116.173h-379.443c-30.18 0-59.118 11.987-80.456 33.324l-81.651 81.651h-321.961v-748.535h59.006zM463.989 477.343l-151.355-403.609h645.807l134.537 403.609h-628.989z" />
<glyph unicode="&#xe92a;" glyph-name="nudge" horiz-adv-x="731" d="M316.947 874.667c-100.989 0-182.857-81.868-182.857-182.857 0-20.198-16.373-36.571-36.571-36.571s-36.571 16.374-36.571 36.571c0 141.385 114.615 256 256 256s256.001-114.615 256.001-256c0-20.198-16.374-36.571-36.571-36.571s-36.571 16.374-36.571 36.571c0 100.989-81.869 182.857-182.858 182.857zM316.948 728.381c-20.198 0-36.571-16.374-36.571-36.572v-460.37c0-13.395-7.326-25.722-19.094-32.124s-26.096-5.856-37.345 1.419l-93.479 60.489c-13.888 8.987-32.346 5.832-42.46-7.261-9.357-12.108-8.767-29.164 1.404-40.599l170.819-192.029h340.994c7.997 70.315 19.554 168.136 28.96 247.155 6.807 57.154-31.612 109.846-88.093 120.827l-158.971 30.915c-17.185 3.34-29.591 18.388-29.591 35.899v235.68c0 20.198-16.374 36.572-36.571 36.572zM207.234 691.809c0 60.593 49.12 109.715 109.714 109.715s109.714-49.121 109.714-109.715v-205.537l129.379-25.155c94.106-18.3 158.096-106.101 146.764-201.279-10.976-92.18-24.834-209.593-32.558-279.113-2.058-18.525-17.71-32.534-36.347-32.534h-390.095c-10.441 0-20.385 4.462-27.325 12.264l-181.728 204.298c-33.555 37.717-35.5 93.984-4.631 133.934 33.367 43.179 94.256 53.589 140.072 23.942l37.041-23.966v393.147z" />
<glyph unicode="&#xe92b;" glyph-name="minimize" d="M1006.694 942.736c18.746-18.745 18.746-49.137 0-67.882l-307.354-307.356h217.798c26.509 0 48-21.491 48-48s-21.491-48-48-48h-333.683c-26.509 0-48 21.49-48 48v333.683c0 26.509 21.491 48 48 48s48-21.49 48-48v-217.801l307.354 307.356c18.746 18.745 49.139 18.745 67.885 0zM58.833 376.501c0 26.509 21.491 48 48 48h333.683c26.509 0 48-21.491 48-48v-333.685c0-26.509-21.491-48-48-48s-48 21.491-48 48v217.805l-307.356-307.36c-18.745-18.746-49.137-18.746-67.882 0s-18.745 49.139 0 67.885l307.356 307.356h-217.801c-26.509 0-48 21.491-48 48z" />
<glyph unicode="&#xe92c;" glyph-name="expand" d="M972.787 368.913c26.509 0 48-21.491 48-48v-333.681c0-26.509-21.491-48-48-48h-333.683c-26.51 0-48 21.491-48 48s21.49 48 48 48h217.798l-307.353 307.354c-18.745 18.745-18.745 49.137 0 67.882s49.137 18.745 67.882 0l307.356-307.357v217.803c0 26.509 21.491 48 48 48zM474.426 485.532c-18.746-18.745-49.137-18.745-67.882 0l-307.356 307.356v-217.8c0-26.51-21.49-48-48-48s-48 21.49-48 48v333.683c0 26.51 21.49 48 48 48h333.683c26.51 0 48-21.49 48-48s-21.49-48-48-48h-217.8l307.356-307.356c18.745-18.745 18.745-49.137 0-67.882z" />
<glyph unicode="&#xe98d;" glyph-name="key" d="M704 960c-176.73 0-320-143.268-320-320 0-20.026 1.858-39.616 5.376-58.624l-389.376-389.376v-192c0-35.346 28.654-64 64-64h64v64h128v128h128v128h128l83.042 83.042c34.010-12.316 70.696-19.042 108.958-19.042 176.73 0 320 143.268 320 320s-143.27 320-320 320zM799.874 639.874c-53.020 0-96 42.98-96 96s42.98 96 96 96 96-42.98 96-96-42.98-96-96-96z" />
</font>
</defs>
</svg>
